<svg width="25" height="20" viewBox="0 0 25 20" xmlns="http://www.w3.org/2000/svg">
<path d="M18.3096 6.89492C19.0423 6.19409 19.7698 4.55882 16.7166 6.5445C13.8645 8.42186 10.9931 10.2722 8.10276 12.0953C7.66263 12.2856 7.18681 12.3889 6.70389 12.3989C6.22097 12.409 5.7409 12.3255 5.29254 12.1537C3.46066 11.628 1.32213 10.9272 1.32213 10.9272C1.32213 10.9272 -0.138072 10.0499 2.36152 9.11547C2.36152 9.11547 12.9294 4.96764 16.5945 3.50631C17.9989 2.92229 22.7632 1.05342 22.7632 1.05342C22.7632 1.05342 24.9628 0.234514 24.7796 2.22146C24.7185 3.03909 24.23 5.90335 23.7415 8.99867C23.0074 13.3801 22.2136 18.1716 22.2136 18.1716C22.2136 18.1716 22.0915 19.5149 21.0534 19.7485C19.9422 19.7305 18.8685 19.3608 18.0003 18.6973C17.756 18.5221 13.4192 15.8927 11.8303 14.6078C11.6686 14.5031 11.5373 14.361 11.4485 14.1947C11.3597 14.0284 11.3164 13.8433 11.3225 13.6567C11.3286 13.47 11.3839 13.2879 11.4834 13.1272C11.5828 12.9666 11.7232 12.8326 11.8913 12.7377C14.0707 10.8306 16.2105 8.88266 18.3096 6.89492Z"/>
</svg>
