<svg width="34" height="20" viewBox="0 0 34 20" fill="none" xmlns="http://www.w3.org/2000/svg">
<path d="M16.3051 19.669H18.2963C18.2963 19.669 18.8983 19.6029 19.2045 19.2744C19.4877 18.9727 19.4773 18.4065 19.4773 18.4065C19.4773 18.4065 19.4377 15.7555 20.6791 15.3649C21.9018 14.9806 23.4722 17.9272 25.1364 19.0616C26.3945 19.9191 27.3505 19.731 27.3505 19.731L31.8016 19.669C31.8016 19.669 34.1303 19.5265 33.0263 17.7102C32.9368 17.5614 32.3827 16.3671 29.7167 13.9123C26.9256 11.3419 27.3005 11.7593 30.6623 7.31465C32.7097 4.60781 33.5283 2.95477 33.2721 2.2481C33.0284 1.57448 31.5225 1.75218 31.5225 1.75218L26.5153 1.78111C26.5153 1.78111 26.1446 1.73152 25.8675 1.89476C25.5988 2.05593 25.426 2.42786 25.426 2.42786C25.426 2.42786 24.6324 4.52309 23.5743 6.30424C21.3436 10.0628 20.45 10.2612 20.0855 10.0277C19.2378 9.48427 19.4502 7.84156 19.4502 6.67617C19.4502 3.03329 20.0064 1.51456 18.3651 1.12196C17.8194 0.991787 17.4194 0.905002 16.026 0.890538C14.2389 0.871941 12.7247 0.896737 11.8686 1.31206C11.2979 1.58895 10.8584 2.20677 11.1271 2.2419C11.4583 2.28529 12.2081 2.44233 12.6059 2.97956C13.1204 3.67177 13.1017 5.22976 13.1017 5.22976C13.1017 5.22976 13.3974 9.51733 12.4122 10.0504C11.7353 10.4162 10.8084 9.67023 8.81931 6.25878C7.80079 4.51276 7.03013 2.58077 7.03013 2.58077C7.03013 2.58077 6.88224 2.22123 6.61772 2.02907C6.29696 1.79558 5.84706 1.72119 5.84706 1.72119L1.08564 1.75012C1.08564 1.75012 0.371215 1.77078 0.108774 2.07866C-0.124507 2.35348 0.0900281 2.91964 0.0900281 2.91964C0.0900281 2.91964 3.81835 11.5712 8.03823 15.9332C11.9103 19.9315 16.3051 19.669 16.3051 19.669Z" fill="#B0B0B0"/>
</svg>
