<svg width="23" height="23" viewBox="0 0 23 23" fill="none" xmlns="http://www.w3.org/2000/svg">
<path d="M16.9664 13.5921C16.739 13.4791 15.2608 12.8009 15.0334 12.6879C14.806 12.5748 14.5785 12.5748 14.3511 12.8009C14.1237 13.027 13.6689 13.7052 13.4415 13.9312C13.3278 14.1573 13.1004 14.1573 12.8729 14.0443C12.077 13.7052 11.2811 13.253 10.5988 12.6879C10.0303 12.1227 9.46175 11.4445 9.00692 10.7663C8.89322 10.5403 9.00692 10.3142 9.12063 10.2012C9.23434 10.0881 9.34804 9.86207 9.57546 9.74904C9.68916 9.63601 9.80287 9.40994 9.80287 9.29691C9.91658 9.18388 9.91658 8.95781 9.80287 8.84478C9.68916 8.73175 9.12063 7.37536 8.89322 6.8102C8.77951 6.01897 8.5521 6.01897 8.32469 6.01897H7.75615C7.52874 6.01897 7.18762 6.24504 7.07392 6.35807C6.39168 7.03626 6.05056 7.82749 6.05056 8.73175C6.16426 9.74904 6.50538 10.7663 7.18762 11.6706C8.43839 13.4791 10.0303 14.9485 11.9633 15.8528C12.5318 16.0789 12.9867 16.3049 13.5552 16.4179C14.1237 16.644 14.6922 16.644 15.3745 16.531C16.1704 16.4179 16.8527 15.8528 17.3075 15.1746C17.5349 14.7225 17.5349 14.2703 17.4212 13.8182L16.9664 13.5921ZM19.809 3.3062C15.3745 -1.10207 8.21098 -1.10207 3.77643 3.3062C0.137821 6.92323 -0.544417 12.4618 1.95712 16.8701L0.365234 22.6347L6.39168 21.0523C8.09727 21.9565 9.91658 22.4087 11.7359 22.4087C17.9897 22.4087 22.9928 17.4352 22.9928 11.2185C23.1065 8.27962 21.8558 5.45381 19.809 3.3062ZM16.739 19.1307C15.2608 20.035 13.5552 20.6001 11.7359 20.6001C10.0303 20.6001 8.43839 20.148 6.96021 19.3568L6.61909 19.1307L3.09419 20.035L4.00384 16.644L3.77643 16.3049C1.04747 11.7836 2.41195 6.13201 6.8465 3.3062C11.2811 0.480388 16.9664 1.94981 19.6953 6.24504C22.4243 10.6533 21.1735 16.4179 16.739 19.1307Z" fill="#B0B0B0"/>
</svg>
