<svg width="30" height="30" viewBox="0 0 30 30" fill="none" xmlns="http://www.w3.org/2000/svg">
<circle cx="15" cy="15" r="15" fill="#D9D9D9"/>
<path fill-rule="evenodd" clip-rule="evenodd" d="M5.69767 8.75V9.46121C5.69767 8.75 5.69765 8.75 5.69767 8.75H11.4625C12.7873 8.75 13.8495 9.16669 14.5879 9.85894C15.3236 10.5487 15.6977 11.4767 15.6977 12.4091C15.6977 13.3416 15.3236 14.2695 14.5879 14.9593C14.4218 15.115 14.2393 15.2568 14.0412 15.383C14.2484 15.5247 14.4382 15.6844 14.6098 15.8599C15.3384 16.6051 15.6977 17.5937 15.6977 18.5729C15.6977 19.5521 15.3384 20.5407 14.6098 21.2859C13.8744 22.038 12.8049 22.5 11.4625 22.5H5.69771C5.69769 22.5 5.69767 22.5 5.69767 21.7888L5.69771 22.5C5.31239 22.5 5 22.1816 5 21.7888V9.46121C5 9.06842 5.31236 8.75 5.69767 8.75ZM6.39535 21.0776H11.4625C12.4785 21.0776 13.1777 20.7356 13.6215 20.2817C14.072 19.821 14.3023 19.2017 14.3023 18.5729C14.3023 17.9441 14.072 17.3248 13.6215 16.8641C13.1777 16.4102 12.4785 16.0682 11.4625 16.0682H6.39535V21.0776ZM6.39535 14.6458H11.4625C12.496 14.6458 13.2026 14.3255 13.6433 13.9123C14.0868 13.4966 14.3023 12.9506 14.3023 12.4091C14.3023 11.8676 14.0868 11.3216 13.6433 10.9059C13.2026 10.4927 12.496 10.1724 11.4625 10.1724H6.39535V14.6458ZM17.5581 10.4095C17.5581 10.0167 17.8705 9.69828 18.2558 9.69828H22.907C23.2923 9.69828 23.6047 10.0167 23.6047 10.4095C23.6047 10.8023 23.2923 11.1207 22.907 11.1207H18.2558C17.8705 11.1207 17.5581 10.8023 17.5581 10.4095ZM16.1628 17.5216C16.1628 14.8531 18.0661 12.5431 20.5814 12.5431C23.0967 12.5431 25 14.8531 25 17.5216C25 17.9143 24.6876 18.2328 24.3023 18.2328H17.6176C17.9033 19.9073 19.178 21.0776 20.5814 21.0776C21.6739 21.0776 22.3195 20.6807 22.6919 20.3229C22.8843 20.1382 23.0127 19.9547 23.0912 19.8218C23.1303 19.7556 23.1563 19.703 23.1712 19.6708C23.1786 19.6547 23.1832 19.6439 23.1852 19.6391C23.1855 19.6383 23.1857 19.6377 23.1859 19.6372C23.3228 19.2736 23.7218 19.0895 24.0807 19.2257C24.4418 19.3628 24.6255 19.7723 24.491 20.1404L23.8372 19.8922C24.491 20.1404 24.4909 20.1408 24.4907 20.1413L24.4897 20.144L24.4881 20.1482C24.487 20.1512 24.4857 20.1548 24.4841 20.1587C24.481 20.1667 24.4772 20.1765 24.4724 20.188C24.463 20.211 24.4502 20.2409 24.4337 20.2767C24.4006 20.3482 24.3525 20.4438 24.2866 20.5554C24.1552 20.778 23.9502 21.0687 23.6489 21.3581C23.0342 21.9486 22.0519 22.5 20.5814 22.5C18.0661 22.5 16.1628 20.19 16.1628 17.5216ZM23.1841 19.642L23.1839 19.6425L23.1838 19.6429C23.1839 19.6426 23.184 19.6423 23.1841 19.642ZM17.6176 16.8103H23.5452C23.2595 15.1358 21.9848 13.9655 20.5814 13.9655C19.178 13.9655 17.9033 15.1358 17.6176 16.8103Z" fill="black"/>
</svg>
