<svg width="30" height="30" viewBox="0 0 30 30" fill="none" xmlns="http://www.w3.org/2000/svg">
<circle cx="15" cy="15" r="15" fill="#D9D9D9"/>
<path fill-rule="evenodd" clip-rule="evenodd" d="M7.09302 5C5.93708 5 5 5.93708 5 7.09302V22.907C5 24.0629 5.93708 25 7.09302 25H22.907C24.0629 25 25 24.0629 25 22.907V7.09302C25 5.93708 24.0629 5 22.907 5H7.09302ZM12.2093 6.39535C8.99834 6.39535 6.39535 8.99834 6.39535 12.2093V18.0233C6.39535 21.2342 8.99834 23.8372 12.2093 23.8372H17.7907C21.0017 23.8372 23.6047 21.2342 23.6047 18.0233V12.2093C23.6047 8.99834 21.0017 6.39535 17.7907 6.39535H12.2093Z" fill="black"/>
</svg>
