<svg width="31" height="30" viewBox="0 0 31 30" fill="none" xmlns="http://www.w3.org/2000/svg">
<path d="M15.4938 0C7.20095 0 0.5 6.71329 0.5 14.9938C0.5 21.3492 4.44899 26.7791 10.0269 28.9634C9.8912 27.7787 9.78013 25.9523 10.0763 24.6565C10.3478 23.4842 11.8287 17.2028 11.8287 17.2028C11.8287 17.2028 11.3844 16.3019 11.3844 14.9815C11.3844 12.8959 12.5938 11.341 14.0993 11.341C15.3828 11.341 15.9998 12.3036 15.9998 13.4513C15.9998 14.7347 15.1853 16.6598 14.7534 18.4492C14.3955 19.9424 15.5062 21.1641 16.9747 21.1641C19.6403 21.1641 21.6888 18.3505 21.6888 14.3028C21.6888 10.7116 19.1096 8.2065 15.4198 8.2065C11.1499 8.2065 8.6448 11.4027 8.6448 14.71C8.6448 15.9934 9.13842 17.3756 9.75545 18.1283C9.87886 18.2764 9.8912 18.4122 9.85418 18.5603C9.74311 19.0292 9.48396 20.0535 9.4346 20.2633C9.37289 20.5348 9.21247 20.5965 8.92863 20.4607C7.07754 19.5722 5.91752 16.8326 5.91752 14.636C5.91752 9.9095 9.34821 5.56561 15.827 5.56561C21.0224 5.56561 25.0701 9.26779 25.0701 14.2287C25.0701 19.3994 21.8122 23.5582 17.2956 23.5582C15.7777 23.5582 14.3462 22.7684 13.8649 21.8305C13.8649 21.8305 13.1121 24.6935 12.927 25.397C12.5938 26.7051 11.6806 28.334 11.0636 29.3336C12.4704 29.7655 13.9513 30 15.5062 30C23.7867 30 30.5 23.2867 30.5 15.0062C30.4877 6.71329 23.7744 0 15.4938 0Z" fill="#D9D9D9"/>
</svg>
