<?xml version="1.0" encoding="UTF-8"?>
<svg id="_Слой_2" data-name="Слой 2" xmlns="http://www.w3.org/2000/svg" viewBox="0 0 1275.04 265.9">
  <defs>
    <style>
      .cls-1 {
        fill: #f1f2f3;
      }

      .cls-2 {
        fill: #e31f0e;
      }
    </style>
  </defs>
  <g id="_Слой_1-2" data-name="Слой 1">
    <g>
      <path class="cls-1" d="m406.4,96.2c-3.4-3.2-7.9-5.8-13.4-7.7-5.5-1.9-12.5-2.9-20.7-2.9h-26.8v94.5h26.7c25.2,0,43.5-9,43.5-36v-23.8c.1-4.5-.6-8.9-2.1-13.1-1.4-4.1-3.9-7.8-7.2-11Zm-5.5,47.4c0,12.2-10,22.1-22.1,22.1h-19.2v-65.5h19.3c12.2,0,22.1,10,22.1,22.1l-.1,21.3Z"/>
      <path class="cls-1" d="m486.9,85.5h-55.1v75.1c0,10.8,8.8,19.5,19.5,19.5h55.1v-19.5l.1-55.5c0-10.8-8.8-19.6-19.6-19.6Zm3,72c0,4.6-3.8,8.4-8.4,8.4h-25.5c-4.6,0-8.4-3.8-8.4-8.4v-57.4h33.9c4.6,0,8.4,3.8,8.4,8.4v49Z"/>
      <path class="cls-1" d="m589.7,87.9c-1.6-1.4-3.5-2.2-5.9-2.3h-9.1v7.4l.1,72.9h-26c-4.8,0-8.8-4-8.8-8.8l-.1-64.1c0-2-.8-3.7-2.5-5.2-1.6-1.4-3.5-2.2-5.7-2.2h-9.1v85c0,.6.1,1.2.2,1.8.8,4.4,4.7,7.7,9.3,7.7h60v-87.1c.1-1.9-.7-3.6-2.4-5.1Z"/>
      <path class="cls-1" d="m234.9,65.3h-36.4c-21.4,0-37.8,6.4-49.3,19.3-1,1.2-2,2.3-2.9,3.5-.8-1.1-1.7-2.2-2.6-3.3-11.2-13-25.9-19.6-44.4-19.6h-41.9c-4.4,0-7.9,3.5-7.9,7.9v119.3c0,4.4,3.6,7.9,7.9,7.9h36.4c21.4,0,37.8-6.4,49.3-19.3,1-1.2,2-2.3,2.9-3.5.8,1.1,1.7,2.2,2.6,3.3,11.2,13,25.9,19.6,44.4,19.6h41.9c4.4,0,7.9-3.5,7.9-7.9v-119.3c0-4.4-3.5-7.9-7.9-7.9Zm-102.1,80c-1.6,9.6-5,17.3-10.3,23-7.6,8.2-16.8,12.3-27.7,12.3h-16.3c-2.2,0-4-1.8-4-4v-88.1c0-2.2,1.8-4,4-4h19.2c10.9,0,19.7,4.6,26.3,13.7,4.5,6.2,7.5,13.4,8.9,21.5.7,3.8,1,7.8,1,12,0,4.9-.4,9.5-1.1,13.6Zm85,32h0c0,2.2-1.8,4-4,4h-19.2c-10.9,0-19.7-4.6-26.3-13.7-4.5-6.2-7.5-13.4-8.9-21.5-.7-3.8-1-7.8-1-12,0-4.9.4-9.5,1.1-13.6,1.6-9.6,5-17.2,10.3-22.9,7.6-8.2,16.8-12.3,27.7-12.3h16.3c2.2,0,4,1.8,4,4v88Z"/>
      <path class="cls-2" d="m225.4,0H66.8C29.9,0,0,29.9,0,66.9v132.2c0,36.9,29.9,66.8,66.8,66.8h158.6c36.9,0,66.8-29.9,66.8-66.8V66.8C292.2,29.9,262.3,0,225.4,0Zm43.2,199c0,23.8-19.4,43.2-43.2,43.2H66.8c-23.8,0-43.2-19.4-43.2-43.2V66.8c0-23.8,19.4-43.2,43.2-43.2h158.6c23.8,0,43.2,19.4,43.2,43.2v132.2Z"/>
      <path class="cls-1" d="m1195,167.8c-1.6-1.3-3.4-2-5.5-2.1-.3,0-.5-.1-.8-.1h-29.8c-1.9-.2-3.5-1.7-4-3.5v-18.6c.5-1.7,1.8-3.1,3.6-3.5h34.6v-7.3c0-2-.9-3.7-2.6-5-1.8-1.4-3.6-2.1-5.7-2.1h-25.5c-2.1-.1-3.9-1.6-4.4-3.5v-21.7h41.1v-7.1c0-2-.8-3.7-2.5-5.2-1.8-1.6-3.8-2.3-6.3-2.3h-50v86.3c0,1.6.3,2.9.9,4,.6,1.1,1.4,1.9,2.5,2.5,1.1.7,2.5,1.1,4,1.4,1.6.3,3.2.5,4.9.5h48.2v-7.5c-.2-2.3-1-3.9-2.7-5.2Z"/>
      <path class="cls-1" d="m1026.3,85.6h-9.1v7.4l.1,72.9h-26c-4.8,0-8.8-4-8.8-8.8l-.1-64.1c0-2-.8-3.7-2.5-5.2-1.6-1.4-3.5-2.2-5.7-2.2h-9.1v85c0,.6.1,1.2.2,1.8.8,4.4,4.7,7.7,9.3,7.7h60v-87.1c.1-1.9-.8-3.6-2.4-5.1-1.6-1.4-3.5-2.2-5.9-2.3Z"/>
      <path class="cls-1" d="m939.6,96.2c-3.4-3.2-7.9-5.8-13.4-7.7-5.5-1.9-12.5-2.9-20.7-2.9h-26.8v94.5h26.7c25.2,0,43.5-9,43.5-36v-23.8c.1-4.5-.6-8.9-2.1-13.1-1.4-4.1-3.9-7.8-7.2-11Zm-5.4,47.4h-.1c0,12.2-10,22.1-22.1,22.1h-19.2v-65.5h19.3c12.2,0,22.1,10,22.1,22.1v21.3Z"/>
      <path class="cls-1" d="m1275,99.9c.1-.1,0-5.3,0-7.2,0-4-3.6-7.1-8.3-7.1h-54.7v29.5c0,3.6-.1,7.1,0,10.5.3,9.8,6.7,14.4,16.1,14.4h24.4c6.5,0,8.2,6.1,8.3,12.1v13.8h-40.9c-4.3,0-7.9,3.2-7.9,7.2s3.5,7.1,7.9,7.1h55.1s-.1-14.8-.1-27.8c0-5,.1-9,.1-12.5-.1-11.5-9.1-14.3-16-14.3h-24.5c-7.8,0-8.9-5.9-8.9-15.5v-10.2c7.6.1,49.4.1,49.4,0Z"/>
      <path class="cls-1" d="m1111.5,96.2c-3.4-3.2-7.9-5.8-13.4-7.7-5.5-1.9-12.5-2.9-20.7-2.9h-26.8v94.5h26.7c25.2,0,43.5-9,43.5-36v-23.8c.1-4.5-.6-8.9-2.1-13.1-1.4-4.1-3.9-7.8-7.2-11Zm-5.4,47.4h-.1c0,12.2-10,22.1-22.1,22.1h-19.2v-65.5h19.3c12.2,0,22.1,10,22.1,22.1v21.3Z"/>
      <path class="cls-1" d="m751.1,168.1c-1.7-1.4-3.7-2.1-6-2.1h-28c-4.1-.1-5-1.1-5.2-4.3v-68.8c0-1.9-.8-3.6-2.5-5s-3.6-2.2-6-2.2h-8.9v86.7c0,2.2.9,4,2.8,5.6,1.9,1.6,4.1,2.4,6.7,2.4h49.7c-.1-.1,0-5.2,0-7.3-.2-2.1-.9-3.7-2.6-5Z"/>
      <path class="cls-1" d="m673.9,132.4c-1.9-1.1-4.5-1.5-7.2-1.7,4.9-1.1,8.6-5.5,8.6-10.8v-23.3c0-6.1-5-11.1-11.1-11.1h-56v86.3c.2,2.3.9,4.2,2.8,5.9,2,1.8,4.3,2.4,7.2,2.4h59.9s-.1-8-.1-11v-16.1h.2v-7.9c-.2-7.7.8-9.8-4.3-12.7Zm-47.9-27.3c0-1.4.6-2.7,1.5-3.6.9-.9,2.2-1.5,3.6-1.5h21.3c2.8,0,5.1,2.3,5.1,5.1v13.6c0,2.8-2.3,5.1-5.1,5.1h-21.3c-1.4,0-2.7-.6-3.6-1.5s-1.5-2.2-1.5-3.6v-13.6Zm34.4,54.8c0,3.2-2.6,5.8-5.8,5.8h-22.7c-1.5,0-2.8-.6-3.8-1.5l-.5-.5c-.9-1-1.5-2.4-1.5-3.9v-15.5c0-1.5.6-2.8,1.5-3.9.1-.1.3-.3.4-.4,1-1,2.4-1.5,3.9-1.5h22.7c3.2,0,5.8,2.6,5.8,5.8v15.6Z"/>
      <path class="cls-1" d="m827.5,167.8c-1.6-1.3-3.4-2-5.5-2.1-.3,0-.5-.1-.8-.1h-29.8c-.6-.1-1.1-.3-1.6-.5-1.5-.8-2.4-2.5-2.4-4.2v-16.8c0-.5.1-1,.3-1.4.6-1.2,1.6-2.1,2.8-2.5.3-.1.6-.1.9-.1h30.8c1.9,0,3.4-1.5,3.4-3.4v-3.9c0-2-.9-3.7-2.6-5-1.8-1.4-3.6-2.1-5.7-2.1h-25.5c-1.8-.1-3.4-1.2-4.1-2.7-.2-.4-.3-.9-.3-1.4v-17.7c0-1.9,1.5-3.4,3.4-3.4h34.3c1.9,0,3.4-1.5,3.4-3.4v-3.7c0-2-.8-3.7-2.5-5.2-1.8-1.6-3.8-2.3-6.3-2.3h-46.6c-1.9,0-3.4,1.5-3.4,3.4v82.8c0,1.6.3,2.9.9,4,.6,1.1,1.4,1.9,2.5,2.5,1.1.7,2.5,1.1,4,1.4,1.6.3,3.2.5,4.9.5h44.8c1.9,0,3.4-1.5,3.4-3.4v-4.1c-.1-2.3-.9-3.9-2.7-5.2Z"/>
    </g>
  </g>
</svg>