<svg width="164" height="165" viewBox="0 0 164 165" fill="none" xmlns="http://www.w3.org/2000/svg">
<path d="M0.0780029 86.4935L10.4983 85.1104L10.87 87.9095L2.9373 88.9647L3.62069 94.0983L11.5534 93.0431L11.9252 95.8423L1.50492 97.2254L0.0780029 86.4935Z" fill="#F8F8F8"/>
<path d="M4.80703 83.1371C4.0963 83.0934 3.43478 82.9622 2.82247 82.7435C2.20468 82.5248 1.67985 82.1804 1.24248 81.7048C0.805116 81.2291 0.477092 80.6114 0.252941 79.8405C0.02879 79.0696 -0.0477514 78.1184 0.0287879 76.9812L0.0670616 76.4181C0.138134 75.2809 0.334942 74.3461 0.657501 73.608C0.98006 72.8699 1.38463 72.3014 1.87667 71.8859C2.36871 71.4704 2.93729 71.197 3.57147 71.0603C4.21112 70.9237 4.88357 70.8745 5.59429 70.9237L6.4089 70.9783C7.11962 71.0221 7.78113 71.1533 8.39891 71.372C9.01123 71.5906 9.54154 71.9351 9.97344 72.4107C10.4108 72.8863 10.7388 73.5041 10.963 74.275C11.1871 75.0458 11.2637 75.9971 11.1871 77.1343L11.1489 77.6974C11.0778 78.8345 10.881 79.7694 10.5584 80.5075C10.2413 81.2401 9.83129 81.8141 9.33925 82.2296C8.84722 82.6451 8.27864 82.9185 7.64445 83.0551C7.0048 83.1918 6.33236 83.241 5.62163 83.1918L4.80703 83.1371ZM5.39201 80.3435C5.79111 80.3708 6.17381 80.3763 6.54558 80.3599C6.91734 80.3489 7.25082 80.2451 7.54605 80.0646C7.84127 79.8788 8.08729 79.5726 8.28411 79.1352C8.48092 78.7033 8.6012 78.0746 8.65587 77.2491C8.71054 76.4236 8.66681 75.7839 8.52466 75.3301C8.38799 74.8764 8.18024 74.5374 7.91235 74.3187C7.64446 74.1 7.3219 73.9579 6.95561 73.8978C6.58931 73.8376 6.20661 73.7939 5.80751 73.772C5.40842 73.7501 5.02572 73.7392 4.65942 73.7556C4.29313 73.7665 3.95963 73.8704 3.6644 74.0563C3.36918 74.2422 3.12316 74.5538 2.92634 74.9857C2.72953 75.4176 2.60926 76.0463 2.55458 76.8719C2.49991 77.6974 2.54364 78.337 2.68579 78.7908C2.82247 79.2446 3.03023 79.5835 3.29812 79.8022C3.56601 80.0264 3.88309 80.163 4.24392 80.2232C4.60474 80.2833 4.98745 80.3271 5.38108 80.3489L5.39201 80.3435Z" fill="#F8F8F8"/>
<path d="M10.8808 63.6139L6.12991 65.3907L12.1874 67.0254L11.4494 69.7534L1.297 67.0199L2.02959 64.2918L8.18007 62.1487L3.9376 57.201L4.67019 54.4729L14.8226 57.2064L14.09 59.9345L8.03245 58.2999L11.2471 62.2198L10.8699 63.6139H10.8808Z" fill="#F8F8F8"/>
<path d="M10.3562 53.232C9.72197 52.9149 9.15887 52.5377 8.67776 52.0948C8.19666 51.6575 7.84676 51.1326 7.62807 50.5258C7.40939 49.9189 7.34925 49.2191 7.44219 48.4264C7.53513 47.6282 7.83582 46.7207 8.34426 45.7038L8.59576 45.2008C9.1042 44.1785 9.64543 43.3912 10.2249 42.839C10.8045 42.2868 11.4004 41.9151 12.0182 41.7237C12.6305 41.5324 13.2592 41.4996 13.9043 41.6199C14.544 41.7401 15.1836 41.9588 15.8232 42.2759L16.5504 42.6422C17.19 42.9593 17.7477 43.3365 18.2288 43.7794C18.7099 44.2167 19.0598 44.7416 19.2785 45.3484C19.4971 45.9553 19.5573 46.6551 19.4643 47.4478C19.3714 48.246 19.0707 49.1535 18.5623 50.1704L18.3108 50.6734C17.8023 51.6957 17.2556 52.483 16.6761 53.0352C16.0966 53.5873 15.5007 53.9591 14.8829 54.1505C14.2706 54.3418 13.6419 54.3746 12.9968 54.2543C12.3571 54.1341 11.7175 53.9154 11.0778 53.5983L10.3452 53.232H10.3562ZM11.9799 50.8866C12.3352 51.0615 12.6851 51.2201 13.035 51.3513C13.3849 51.4825 13.7294 51.5208 14.0738 51.4661C14.4182 51.4114 14.7626 51.2201 15.1125 50.8975C15.4624 50.575 15.8178 50.0447 16.1896 49.3011C16.5558 48.5631 16.7636 47.9562 16.8128 47.4806C16.862 47.0104 16.8019 46.6168 16.6433 46.3106C16.4848 46.0045 16.2442 45.7475 15.9271 45.5507C15.61 45.3539 15.2765 45.1625 14.9212 44.9876C14.5658 44.8126 14.2159 44.6541 13.8715 44.5284C13.5271 44.3972 13.1826 44.3589 12.8382 44.419C12.4938 44.4737 12.1494 44.665 11.7995 44.9876C11.4496 45.3102 11.0942 45.8405 10.7225 46.584C10.3562 47.322 10.1484 47.9289 10.0992 48.4045C10.05 48.8802 10.1101 49.2683 10.2687 49.5745C10.4327 49.8806 10.6678 50.1376 10.9794 50.329C11.291 50.5258 11.6245 50.7116 11.9799 50.8866Z" fill="#F8F8F8"/>
<path d="M33.1046 33.5888L32.711 34.0754L30.5132 32.304L21.5472 43.4186L13.3684 36.8144L15.1397 34.6166L21.3668 39.6409L23.4825 37.0167L17.2555 31.9924L19.0269 29.7946L25.2539 34.8189L27.3751 32.1947L21.1481 27.1704L22.9194 24.9727L29.1465 29.9969L30.1305 28.7778L33.4272 31.4402L33.0992 33.5943L33.1046 33.5888Z" fill="#F8F8F8"/>
<path d="M39.2553 21.0195C39.545 21.3749 39.7637 21.7521 39.9113 22.1457C40.0589 22.5394 40.0917 22.9603 40.0152 23.4086C39.9386 23.8569 39.7309 24.3326 39.3919 24.8301C39.0584 25.3276 38.55 25.8579 37.8666 26.4101L37.5277 26.6889C36.7896 27.2903 36.0242 27.8862 35.226 28.4712C34.4278 29.0561 33.646 29.5919 32.8861 30.084L26.2272 21.9489L28.414 20.1612L30.7977 23.0751C31.1421 22.687 31.5193 22.3152 31.9294 21.9653C32.3394 21.6154 32.7604 21.2601 33.1977 20.9047L33.5367 20.6259C34.1654 20.1065 34.7449 19.7457 35.2697 19.5379C35.7946 19.3302 36.2757 19.2427 36.7076 19.2755C37.1395 19.3083 37.5331 19.4395 37.8885 19.6691C38.2438 19.8988 38.5664 20.1885 38.8507 20.5329L39.2498 21.0195H39.2553ZM34.4497 23.1243C34.067 23.436 33.7171 23.7367 33.3836 24.0264C33.0556 24.3162 32.7166 24.6442 32.3777 24.9996L33.5913 26.4811C34.0287 26.1914 34.4606 25.8852 34.8925 25.5572C35.3244 25.2346 35.6688 24.9668 35.9258 24.7535C36.396 24.3708 36.7404 24.0538 36.9645 23.8023C37.1887 23.5508 37.3254 23.343 37.38 23.1681C37.4347 22.9931 37.4293 22.8455 37.3636 22.7252C37.298 22.605 37.216 22.4792 37.1176 22.359C37.0192 22.2387 36.9153 22.1348 36.806 22.0419C36.6967 21.9489 36.5545 21.9216 36.3741 21.9489C36.1937 21.9763 35.9531 22.0747 35.647 22.2496C35.3463 22.4246 34.9417 22.7143 34.4497 23.1189V23.1243Z" fill="#F8F8F8"/>
<path d="M50.4846 14.9841C50.4682 15.4925 50.4464 15.9682 50.4136 16.4055C50.3808 16.8429 50.2878 17.2475 50.1402 17.6192C49.9926 17.991 49.7739 18.3354 49.4841 18.6471C49.1944 18.9587 48.8008 19.243 48.2923 19.4945C48.0846 19.5983 47.855 19.6967 47.598 19.7951C47.341 19.8936 47.1114 19.9646 46.8982 20.0084L45.7665 17.7341C45.9743 17.6903 46.2039 17.6138 46.4499 17.5208C46.6959 17.4224 46.8927 17.335 47.0567 17.2584C47.4613 17.0561 47.7128 16.8593 47.8222 16.668C47.9315 16.4766 47.9752 16.2306 47.9588 15.9354L40.6767 11.8952L40.3978 11.3321L42.9291 10.0747L48.0955 13.169L48.3962 7.3575L50.7853 6.17114L51.0641 6.73425L50.4901 14.9896L50.4846 14.9841Z" fill="#F8F8F8"/>
<path d="M57.1873 7.47777C57.2529 7.69645 57.3239 7.89874 57.395 8.07368C57.4661 8.24863 57.5918 8.38531 57.7668 8.47825C57.9417 8.57119 58.1877 8.61492 58.4994 8.60399C58.811 8.59306 59.2319 8.51105 59.7677 8.3525C60.2379 8.21583 60.6862 8.07368 61.1017 7.93701C61.5172 7.80033 61.9546 7.63085 62.4083 7.42857L61.0744 2.89634L63.786 2.09814L66.7547 12.1849L64.043 12.9831L63.1136 9.82315C62.6434 10.0473 62.1569 10.2441 61.643 10.4027C61.129 10.5612 60.5987 10.7252 60.0575 10.8838L59.6365 11.0095C58.8547 11.2391 58.1768 11.3375 57.6028 11.2993C57.0287 11.261 56.5476 11.1243 56.1485 10.8838C55.7494 10.6487 55.4268 10.3261 55.1699 9.92703C54.9184 9.52793 54.7161 9.07963 54.5685 8.57666L53.5516 5.11598L56.2633 4.31779L57.1927 7.47777H57.1873Z" fill="#F8F8F8"/>
<path d="M67.6843 12.0153L67.6023 11.3921L70.9372 0.977231L73.7364 0.605469L79.6736 9.79019L79.7556 10.4134L77.2353 10.7469L76.0654 8.84439L70.8224 9.53871L70.2046 11.6763L67.6843 12.0098V12.0153ZM74.7259 6.64661L72.6648 3.29528L71.5495 7.06758L74.7204 6.64661H74.7259Z" fill="#F8F8F8"/>
<path d="M80.6249 4.91371C80.6577 4.20298 80.7779 3.536 80.9857 2.91821C81.1934 2.30043 81.5215 1.77012 81.9698 1.32182C82.4181 0.878988 83.0194 0.534561 83.763 0.294008C84.5065 0.0534561 85.4304 -0.0394846 86.5402 0.0151864L87.1034 0.0425219C87.8141 0.0753245 88.5029 0.151864 89.1645 0.27214C89.8315 0.392416 90.482 0.550962 91.1217 0.747777L91.0069 3.30091C90.646 3.18064 90.2798 3.07129 89.9135 2.98382C89.5472 2.89635 89.1809 2.81434 88.8255 2.7542C88.4647 2.6886 88.1257 2.63939 87.7977 2.60659C87.4697 2.57379 87.1744 2.54645 86.912 2.53552C86.0974 2.49725 85.4632 2.54645 85.0149 2.67766C84.5612 2.80887 84.2277 3.00569 84.0145 3.26811C83.8012 3.53053 83.6646 3.84762 83.6099 4.22485C83.5552 4.60208 83.5169 5.01211 83.5005 5.46041C83.4787 5.90872 83.4787 6.32422 83.5005 6.70145C83.5224 7.07868 83.6263 7.41217 83.8176 7.69646C84.009 7.98075 84.3206 8.21037 84.7634 8.38531C85.2008 8.55479 85.8241 8.66413 86.6441 8.69694C86.9065 8.70787 87.2018 8.71334 87.5298 8.70787C87.8578 8.7024 88.2077 8.686 88.5686 8.6532C88.9294 8.6204 89.3011 8.57666 89.6729 8.51652C90.0501 8.45638 90.4219 8.37985 90.7882 8.29237L90.6734 10.8619C90.0173 10.9877 89.3558 11.0806 88.6834 11.1407C88.0109 11.2009 87.3166 11.2118 86.6059 11.179L86.0427 11.1517C84.9329 11.1025 84.0199 10.922 83.3037 10.6159C82.5875 10.3097 82.0244 9.9161 81.6144 9.42953C81.2098 8.94296 80.931 8.38531 80.7834 7.75113C80.6358 7.11695 80.5756 6.44449 80.6084 5.73377L80.6467 4.91917L80.6249 4.91371Z" fill="#F8F8F8"/>
<path d="M95.6591 12.0209L97.3484 4.19743L93.3629 3.33363L93.8932 0.878906L104.647 3.20242L104.117 5.65715L100.115 4.79335L98.4255 12.6168L95.6646 12.0209H95.6591Z" fill="#F8F8F8"/>
<path d="M109.917 5.06711L108.398 8.85034L113.493 10.9005L115.013 7.11727L117.631 8.17242L113.706 17.9257L111.087 16.8706L112.553 13.2295L107.457 11.1793L105.992 14.8204L103.373 13.7653L107.299 4.01196L109.917 5.06711Z" fill="#F8F8F8"/>
<path d="M127.915 14.2736L130.304 15.7825L124.695 24.6775L122.306 23.1686L125.903 17.4609L117.648 20.2327L115.259 18.7238L120.868 9.82886L123.257 11.3378L119.66 17.0454L127.915 14.2736Z" fill="#F8F8F8"/>
<path d="M135.235 19.8771L132.496 22.9004L133.836 24.1086L139.112 23.3815L141.156 25.2348L140.735 25.6995L134.754 26.5305L134.519 32.5607L134.098 33.0254L132.054 31.1721L132.245 26.0549L130.813 24.7592L128.177 27.6677L126.083 25.7706L133.142 17.98L135.235 19.8771Z" fill="#F8F8F8"/>
<path d="M134.372 33.2771L134.864 32.889L145.525 30.467L147.269 32.6867L142.376 42.4673L141.884 42.8555L140.315 40.8545L141.359 38.8809L138.095 34.7204L135.935 35.2781L134.366 33.2771H134.372ZM142.572 36.6175L144.409 33.1405L140.593 34.0972L142.567 36.6175H142.572Z" fill="#F8F8F8"/>
<path d="M146.99 47.7923L149.313 43.2819L143.731 46.1521L142.441 43.6427L151.79 38.8372L153.08 41.3466L149.975 47.0706L156.442 47.8743L157.733 50.3837L148.384 55.1892L147.094 52.6798L152.676 49.8096L147.657 49.0716L146.995 47.7868L146.99 47.7923Z" fill="#F8F8F8"/>
<path d="M155.639 59.12C156.333 58.9559 157 58.8849 157.656 58.9122C158.307 58.9395 158.908 59.1036 159.466 59.4152C160.018 59.7213 160.51 60.2024 160.947 60.853C161.385 61.5036 161.729 62.3674 161.991 63.4444L162.123 63.9911C162.287 64.6855 162.407 65.3634 162.478 66.0358C162.549 66.7083 162.576 67.3807 162.565 68.0477L160.078 68.6436C160.094 68.2609 160.094 67.8837 160.078 67.5065C160.061 67.1293 160.034 66.7575 159.996 66.3967C159.958 66.0358 159.908 65.6914 159.854 65.3634C159.799 65.0354 159.739 64.7456 159.679 64.4941C159.487 63.7014 159.269 63.1055 159.017 62.7064C158.766 62.3073 158.487 62.0449 158.175 61.9082C157.864 61.7715 157.519 61.7332 157.148 61.7824C156.77 61.8371 156.366 61.9136 155.928 62.0175C155.491 62.1214 155.092 62.2362 154.737 62.3619C154.381 62.4877 154.086 62.679 153.867 62.9415C153.643 63.2039 153.512 63.5702 153.468 64.0403C153.424 64.505 153.496 65.1392 153.687 65.932C153.747 66.1834 153.829 66.4732 153.922 66.7848C154.02 67.1019 154.135 67.4299 154.261 67.7689C154.392 68.1079 154.54 68.4523 154.698 68.7912C154.862 69.1357 155.037 69.4692 155.223 69.8027L152.719 70.404C152.413 69.8081 152.145 69.1958 151.899 68.5671C151.659 67.9384 151.451 67.2769 151.287 66.5825L151.156 66.0358C150.899 64.9588 150.817 64.0294 150.91 63.2531C151.003 62.4768 151.227 61.8262 151.577 61.3013C151.926 60.7765 152.391 60.3555 152.96 60.033C153.528 59.7159 154.157 59.4698 154.851 59.3058L155.644 59.1145L155.639 59.12Z" fill="#F8F8F8"/>
<path d="M163.227 71.0275C163.391 71.9187 163.539 72.8535 163.659 73.8376C163.779 74.8217 163.872 75.7839 163.938 76.7352L163.971 77.1726C164.031 78.0473 163.998 78.7799 163.872 79.3649C163.747 79.9498 163.55 80.4255 163.293 80.7863C163.036 81.1526 162.719 81.415 162.347 81.5736C161.975 81.7376 161.576 81.8305 161.15 81.8633L160.838 81.8852C160.379 81.918 159.953 81.8086 159.559 81.5626C159.165 81.3166 158.848 80.8519 158.613 80.1631C158.547 80.5786 158.449 80.9284 158.323 81.2237C158.198 81.5134 158.044 81.7485 157.87 81.9289C157.695 82.1093 157.503 82.2406 157.29 82.3335C157.082 82.421 156.864 82.4702 156.634 82.4866L156.322 82.5084C155.896 82.5358 155.486 82.492 155.092 82.3718C154.699 82.2515 154.354 82.0164 154.043 81.672C153.736 81.3276 153.479 80.8519 153.266 80.2451C153.059 79.6382 152.922 78.8674 152.856 77.9325L152.829 77.4951C152.763 76.5438 152.72 75.5762 152.709 74.5866C152.692 73.5971 152.709 72.6513 152.747 71.7437L163.233 71.0166L163.227 71.0275ZM156.847 74.3023L155.267 74.4117C155.251 74.9365 155.251 75.4668 155.267 76.0081C155.284 76.5493 155.305 77.0249 155.333 77.4404C155.377 78.0692 155.431 78.5503 155.502 78.9002C155.573 79.2446 155.661 79.5015 155.759 79.671C155.858 79.835 155.967 79.9334 156.087 79.9608C156.202 79.9881 156.328 79.999 156.454 79.9881C156.557 79.9826 156.656 79.9608 156.754 79.9225C156.853 79.8842 156.929 79.7749 156.984 79.5945C157.039 79.4141 157.077 79.1243 157.088 78.7361C157.104 78.348 157.088 77.7958 157.039 77.0905L156.847 74.3023ZM161.434 76.9757C161.407 76.5876 161.363 76.1283 161.308 75.5926C161.248 75.0568 161.177 74.5319 161.09 74.0126L159.351 74.1328L159.542 76.9211C159.586 77.5553 159.646 78.0473 159.717 78.3862C159.788 78.7252 159.871 78.9712 159.963 79.1243C160.056 79.2774 160.16 79.3594 160.281 79.3758C160.395 79.3922 160.521 79.3977 160.658 79.3867C160.784 79.3758 160.904 79.3539 161.013 79.3157C161.122 79.2774 161.221 79.179 161.297 79.0204C161.374 78.8619 161.429 78.6213 161.45 78.3042C161.472 77.9817 161.467 77.5388 161.429 76.9757H161.434Z" fill="#F8F8F8"/>
<path d="M159.143 84.7825C159.849 84.8645 160.505 85.0285 161.111 85.2745C161.713 85.5205 162.221 85.8923 162.631 86.3898C163.041 86.8873 163.342 87.5215 163.528 88.3033C163.714 89.0851 163.741 90.0363 163.61 91.1735L163.544 91.7366C163.413 92.8683 163.173 93.7922 162.817 94.5139C162.462 95.2301 162.024 95.7823 161.511 96.1704C160.997 96.5586 160.417 96.8046 159.777 96.9085C159.132 97.0124 158.46 97.0233 157.749 96.9413L156.94 96.8483C156.235 96.7663 155.579 96.6023 154.977 96.3563C154.376 96.1048 153.868 95.7385 153.452 95.241C153.042 94.7435 152.741 94.1093 152.561 93.3275C152.375 92.5512 152.348 91.5945 152.479 90.4573L152.545 89.8942C152.676 88.7625 152.916 87.8386 153.272 87.1169C153.627 86.4007 154.064 85.8485 154.573 85.4604C155.087 85.0722 155.666 84.8262 156.306 84.7223C156.951 84.6185 157.623 84.6075 158.329 84.6841L159.138 84.777L159.143 84.7825ZM158.416 87.5433C158.023 87.4996 157.64 87.4723 157.263 87.4668C156.891 87.4613 156.552 87.5433 156.246 87.7128C155.94 87.8823 155.683 88.1775 155.464 88.604C155.245 89.0249 155.092 89.6482 154.999 90.4682C154.906 91.2883 154.917 91.928 155.032 92.3927C155.147 92.8519 155.333 93.2018 155.59 93.4369C155.847 93.672 156.158 93.8305 156.525 93.907C156.891 93.9836 157.268 94.0492 157.662 94.0929C158.055 94.1367 158.438 94.164 158.804 94.1695C159.171 94.1695 159.51 94.0929 159.81 93.9234C160.116 93.754 160.373 93.4587 160.592 93.0323C160.811 92.6059 160.964 91.9881 161.057 91.168C161.15 90.348 161.139 89.7083 161.024 89.2436C160.909 88.7844 160.723 88.4345 160.466 88.1994C160.209 87.9643 159.898 87.8058 159.542 87.7292C159.182 87.6527 158.804 87.5871 158.411 87.5433H158.416Z" fill="#F8F8F8"/>
<path d="M35.4009 134.462L37.3691 136.545L29.737 143.773L27.7634 141.69L32.6619 137.048L23.92 137.628L21.9464 135.545L29.5785 128.317L31.5521 130.4L26.6536 135.042L35.3955 134.462H35.4009Z" fill="#FF0000"/>
<path d="M48.7241 144.593L51.1405 146.134L45.4821 154.991L43.0656 153.449L46.6958 147.764L38.353 150.437L35.9365 148.895L41.595 140.039L44.0114 141.58L40.3813 147.266L48.7241 144.593Z" fill="#FF0000"/>
<path d="M53.6172 152.914L51.7256 147.14L51.9607 146.561L54.5685 147.627L55.9024 151.733L59.7458 149.743L62.3427 150.803L62.1021 151.383L56.7116 154.176L58.6032 159.95L58.3681 160.529L55.7712 159.469L54.4154 155.374L50.5939 157.353L47.9861 156.287L48.2266 155.707L53.6172 152.908V152.914Z" fill="#FF0000"/>
<path d="M66.1476 156.806C66.2569 156.101 66.4538 155.456 66.7326 154.865C67.0114 154.275 67.3996 153.783 67.9025 153.389C68.4055 153.001 69.0452 152.728 69.8215 152.574C70.5978 152.421 71.5436 152.438 72.6534 152.613L73.222 152.7C73.9327 152.815 74.6216 152.968 75.2776 153.165C75.9337 153.362 76.5788 153.591 77.2021 153.859L76.7975 156.385C76.4476 156.226 76.0922 156.079 75.7314 155.948C75.3706 155.816 75.0152 155.696 74.6599 155.592C74.3045 155.488 73.9655 155.401 73.6375 155.324C73.3095 155.253 73.0143 155.193 72.7518 155.155C71.9318 155.024 71.2921 154.996 70.822 155.078C70.3518 155.155 69.9964 155.313 69.7504 155.549C69.5044 155.784 69.3294 156.084 69.2365 156.451C69.1381 156.817 69.0561 157.221 68.985 157.664C68.9139 158.107 68.8702 158.517 68.8483 158.894C68.8265 159.272 68.8921 159.616 69.0561 159.922C69.2146 160.228 69.5098 160.491 69.9308 160.715C70.3518 160.934 70.9696 161.109 71.7896 161.24C72.0521 161.284 72.3527 161.316 72.6808 161.349C73.0143 161.382 73.3642 161.404 73.7359 161.415C74.1077 161.426 74.4849 161.42 74.8676 161.404C75.2503 161.387 75.6385 161.355 76.0212 161.311L75.6166 163.853C74.9442 163.902 74.2608 163.919 73.5774 163.902C72.894 163.88 72.1942 163.815 71.478 163.705L70.9094 163.618C69.7996 163.443 68.8975 163.159 68.2032 162.776C67.5089 162.388 66.9895 161.934 66.6287 161.404C66.2733 160.874 66.0546 160.289 65.9726 159.638C65.8961 158.987 65.907 158.315 66.0218 157.61L66.1476 156.806Z" fill="#FF0000"/>
<path d="M88.5794 156.101L81.2371 156.178L81.2535 157.747L87.0049 157.687L87.0322 160.196L81.2808 160.256L81.2972 161.667L88.6395 161.59L88.6669 164.099L78.4543 164.209L78.345 153.696L88.552 153.586L88.5794 156.096V156.101Z" fill="#FF0000"/>
<path d="M97.1899 160.589L93.4231 157.156L94.6969 163.301L91.8923 163.88L89.7601 153.586L92.5648 153.006L97.3047 157.522L99.8633 151.497L102.673 150.918L104.806 161.213L102.001 161.792L100.727 155.647L98.6332 160.294L97.2009 160.589H97.1899Z" fill="#FF0000"/>
<path d="M116.981 153.007C117.161 153.433 117.265 153.854 117.298 154.27C117.325 154.691 117.238 155.106 117.036 155.516C116.828 155.926 116.494 156.325 116.024 156.713C115.554 157.102 114.909 157.473 114.089 157.823L113.679 157.998C112.793 158.375 111.875 158.742 110.929 159.086C109.983 159.431 109.075 159.737 108.19 159.999L104.057 150.333L106.692 149.207L108.173 152.668C108.616 152.389 109.092 152.132 109.589 151.908C110.087 151.684 110.601 151.459 111.131 151.235L111.541 151.06C112.301 150.738 112.968 150.546 113.542 150.486C114.111 150.432 114.603 150.475 115.013 150.623C115.423 150.771 115.767 151.006 116.046 151.323C116.325 151.64 116.554 152.006 116.729 152.422L116.975 152.996L116.981 153.007ZM111.711 153.723C111.251 153.92 110.819 154.111 110.415 154.302C110.01 154.494 109.589 154.712 109.157 154.969L109.912 156.73C110.42 156.571 110.929 156.391 111.443 156.194C111.957 155.997 112.367 155.833 112.678 155.702C113.247 155.461 113.673 155.248 113.958 155.068C114.247 154.887 114.439 154.723 114.543 154.57C114.646 154.417 114.679 154.275 114.652 154.138C114.625 154.002 114.575 153.865 114.515 153.717C114.455 153.575 114.384 153.444 114.307 153.329C114.231 153.214 114.1 153.143 113.914 153.121C113.728 153.1 113.466 153.127 113.121 153.214C112.777 153.302 112.306 153.466 111.711 153.723Z" fill="#FF0000"/>
<path d="M120.628 154.423L120.283 153.898L120.239 150.246C119.873 150.311 119.54 150.322 119.228 150.273C118.916 150.229 118.632 150.136 118.37 149.994C118.107 149.852 117.867 149.677 117.648 149.453C117.435 149.234 117.232 148.983 117.047 148.704L116.702 148.179C116.445 147.786 116.254 147.375 116.139 146.949C116.024 146.523 116.024 146.085 116.144 145.631C116.265 145.178 116.516 144.713 116.904 144.237C117.293 143.762 117.856 143.281 118.599 142.789L118.971 142.543C119.775 142.012 120.617 141.493 121.48 140.979C122.35 140.471 123.192 140.006 124.012 139.59L129.801 148.365L127.407 149.945L125.504 147.064C125.127 147.414 124.711 147.742 124.274 148.048C123.837 148.354 123.377 148.66 122.907 148.966L122.94 152.892L120.628 154.417V154.423ZM120.332 144.658C119.9 144.943 119.578 145.189 119.37 145.396C119.162 145.604 119.031 145.785 118.976 145.943C118.922 146.102 118.922 146.244 118.976 146.364C119.031 146.484 119.097 146.605 119.168 146.714C119.304 146.922 119.436 147.097 119.561 147.222C119.687 147.354 119.851 147.425 120.048 147.425C120.25 147.43 120.513 147.359 120.835 147.217C121.158 147.069 121.59 146.823 122.12 146.473C122.35 146.32 122.645 146.118 123.011 145.856C123.372 145.599 123.749 145.303 124.132 144.975L122.902 143.117C122.432 143.368 121.962 143.631 121.491 143.915C121.021 144.199 120.633 144.445 120.321 144.647L120.332 144.658Z" fill="#FF0000"/>
<path d="M135.312 140.58L130.282 139.743L134.689 144.216L132.644 146.227L125.263 138.737L127.308 136.726L133.743 137.945L132.622 131.494L134.667 129.482L142.047 136.972L140.008 138.984L135.602 134.511L136.367 139.552L135.323 140.58H135.312Z" fill="#FF0000"/>
<path d="M41.0318 78.8128V78.0091L47.1222 65.3254H50.8015L56.8919 78.0091V78.8128H53.5788L52.3925 76.194H45.5039L44.3394 78.8128H41.0264H41.0318ZM51.0476 73.1762L48.9646 68.5674L46.8816 73.1762H51.053H51.0476Z" fill="#005CE5"/>
<path d="M62.9659 72.0662L57.9198 66.1235V65.3198H61.539L65.1145 69.5459L68.7119 65.3198H72.3092V66.1235L67.2631 72.0662L72.3092 78.0035V78.8072H68.7119L65.1145 74.5975L61.539 78.8072H57.9198V78.0035L62.9659 72.0662Z" fill="#005CE5"/>
<path d="M81.8714 76.0513L78.028 70.7537V78.8068H74.3486V65.314H78.028L82.8117 72.2189L87.5954 65.314H91.2748V78.8068H87.5954V70.7537L83.752 76.0513H81.8714Z" fill="#005CE5"/>
<path d="M93.1169 78.8128V78.0091L99.2073 65.3254H102.887L108.977 78.0091V78.8128H105.664L104.478 76.194H97.589L96.4245 78.8128H93.1115H93.1169ZM103.133 73.1762L101.05 68.5674L98.9667 73.1762H103.138H103.133Z" fill="#005CE5"/>
<path d="M113.537 78.8128V68.5456H108.223V65.3254H122.552V68.5456H117.216V78.8128H113.537Z" fill="#005CE5"/>
<path d="M36.4943 85.0013V90.2388H38.8451L43.3008 85.0013H46.8982V85.805L41.8466 91.7477L46.8982 97.685V98.4886H43.3008L39.0092 93.4534H36.4943V98.4886H32.8149V84.9958H36.4943V85.0013Z" fill="#005CE5"/>
<path d="M47.9206 98.4942V97.6905L54.011 85.0068H57.6903L63.7807 97.6905V98.4942H60.4676L59.2813 95.8754H52.3927L51.2282 98.4942H47.9152H47.9206ZM57.9364 92.8576L55.8534 88.2488L53.7704 92.8576H57.9418H57.9364Z" fill="#005CE5"/>
<path d="M74.715 86.2256H65.41V82.3767H80.5757V85.7444L71.0302 94.6449H80.8217V98.4937H65.1694V95.126L74.715 86.2256Z" fill="#005CE5"/>
<path d="M82.2049 98.4942V97.6905L88.2953 85.0068H91.9746L98.065 97.6905V98.4942H94.7519L93.5656 95.8754H86.677L85.5125 98.4942H82.1995H82.2049ZM92.2207 92.8576L90.1377 88.2488L88.0547 92.8576H92.2261H92.2207Z" fill="#005CE5"/>
<path d="M103.586 85.001V90.2385H110.743V85.001H114.422V98.4938H110.743V93.4586H103.586V98.4938H99.9071V85.001H103.586Z" fill="#005CE5"/>
<path d="M131.179 94.6672C131.179 95.2576 131.091 95.8098 130.911 96.3183C130.736 96.8267 130.419 97.275 129.971 97.6577C129.522 98.0404 128.921 98.3411 128.172 98.5652C127.423 98.7894 126.477 98.8987 125.329 98.8987H124.755C123.514 98.8987 122.251 98.8659 120.961 98.8003C119.671 98.7347 118.446 98.6308 117.271 98.4996V85.0068H120.95V89.8398C121.617 89.7304 122.3 89.6703 123.006 89.6593C123.705 89.6484 124.427 89.6375 125.16 89.6375H125.734C126.794 89.6375 127.68 89.7468 128.38 89.971C129.08 90.1951 129.637 90.4958 130.047 90.8785C130.457 91.2612 130.747 91.7095 130.917 92.2289C131.086 92.7482 131.173 93.295 131.173 93.869V94.6727L131.179 94.6672ZM124.597 92.8576C123.957 92.8576 123.35 92.8685 122.776 92.8904C122.202 92.9123 121.595 92.9615 120.955 93.0435V95.4982C121.639 95.5638 122.328 95.613 123.027 95.6403C123.727 95.6677 124.296 95.6786 124.733 95.6786C125.52 95.6786 126.133 95.6458 126.565 95.5802C126.997 95.5146 127.308 95.4162 127.505 95.2904C127.702 95.1647 127.817 95.0116 127.855 94.8367C127.888 94.6617 127.904 94.4758 127.904 94.2736C127.904 94.0713 127.888 93.8854 127.855 93.7105C127.822 93.5355 127.702 93.3879 127.5 93.2676C127.292 93.1473 126.969 93.0489 126.521 92.9779C126.073 92.9068 125.433 92.8685 124.602 92.8685L124.597 92.8576Z" fill="#005CE5"/>
</svg>
