<svg width="366" height="237" viewBox="0 0 366 237" fill="none" xmlns="http://www.w3.org/2000/svg">
<path d="M18.7738 192.632L17.1731 194.279V167.409H24.3254V194.279L22.6414 192.632H35.7895L34.1055 194.279V167.409H41.2579V198.498H0.212891V167.409H7.36523V194.279L5.71825 192.632H18.7738Z" fill="white"/>
<path d="M48.8906 198.498V167.409H56.043V198.498H48.8906ZM53.9519 185.97V179.974H64.7868V185.97H53.9519ZM65.8971 183.749L59.2814 182.954L69.3668 167.409H76.9633L65.9063 183.749H65.8971ZM69.0985 198.498L59.4202 183.527L65.2401 180.021L77.2779 198.498H69.1078H69.0985Z" fill="white"/>
<path d="M95.3857 199.034C92.9245 199.034 90.6576 198.637 88.5665 197.832C86.4754 197.036 84.6711 195.907 83.1444 194.454C81.6177 193.002 80.4333 191.299 79.5914 189.347C78.7494 187.395 78.3237 185.257 78.3237 182.953C78.3237 180.649 78.7494 178.512 79.5914 176.56C80.4333 174.607 81.6269 172.905 83.1629 171.452C84.6988 169.999 86.5124 168.88 88.585 168.075C90.6576 167.279 92.906 166.872 95.3394 166.872C97.7729 166.872 100.058 167.27 102.112 168.075C104.167 168.871 105.962 169.999 107.488 171.452C109.015 172.905 110.209 174.598 111.06 176.541C111.92 178.484 112.346 180.622 112.346 182.963C112.346 185.303 111.92 187.413 111.06 189.384C110.199 191.355 109.006 193.057 107.488 194.491C105.962 195.926 104.176 197.045 102.112 197.841C100.058 198.637 97.8099 199.044 95.3857 199.044V199.034ZM95.3394 192.909C96.7273 192.909 98.0135 192.669 99.1793 192.197C100.345 191.725 101.381 191.04 102.27 190.152C103.158 189.264 103.843 188.209 104.333 186.997C104.823 185.785 105.064 184.434 105.064 182.953C105.064 181.473 104.823 180.122 104.333 178.91C103.843 177.698 103.167 176.643 102.288 175.755C101.418 174.866 100.382 174.182 99.1978 173.71C98.0135 173.238 96.7274 172.997 95.3302 172.997C93.933 172.997 92.6562 173.238 91.4903 173.71C90.3245 174.182 89.2882 174.866 88.3999 175.755C87.5117 176.643 86.827 177.698 86.3366 178.91C85.8462 180.122 85.6056 181.473 85.6056 182.953C85.6056 184.434 85.8462 185.748 86.3366 186.969C86.827 188.2 87.5024 189.254 88.3814 190.143C89.2604 191.031 90.2875 191.716 91.4718 192.187C92.6562 192.659 93.9423 192.9 95.3394 192.9V192.909Z" fill="white"/>
<path d="M117.333 198.988C116.797 198.988 116.241 198.942 115.668 198.859C115.094 198.766 114.465 198.655 113.78 198.507L114.224 192.419C114.641 192.539 115.066 192.595 115.511 192.595C116.723 192.595 117.676 192.095 118.351 191.105C119.036 190.115 119.517 188.681 119.813 186.821C120.109 184.952 120.303 182.694 120.387 180.029L120.831 167.418H144.721V198.507H137.615V171.637L139.262 173.284H125.54L127.002 171.554L126.734 179.77C126.642 182.824 126.438 185.526 126.114 187.894C125.79 190.263 125.281 192.28 124.606 193.936C123.921 195.592 122.996 196.851 121.812 197.711C120.627 198.572 119.128 198.997 117.324 198.997L117.333 198.988Z" fill="white"/>
<path d="M148.995 198.498L162.856 167.409H169.962L183.859 198.498H176.309L164.937 171.055H167.778L156.36 198.498H148.986H148.995ZM155.925 191.836L157.831 186.377H173.82L175.772 191.836H155.916H155.925Z" fill="white"/>
<path d="M200.56 198.498V167.409H225.653V173.137H207.712V179.53H216.327C220.083 179.53 222.952 180.317 224.922 181.88C226.893 183.453 227.874 185.73 227.874 188.718C227.874 191.707 226.782 194.196 224.589 195.917C222.396 197.638 219.306 198.489 215.309 198.489H200.56V198.498ZM207.712 193.169H214.911C216.743 193.169 218.149 192.808 219.13 192.077C220.111 191.355 220.592 190.291 220.592 188.903C220.592 186.183 218.695 184.814 214.911 184.814H207.712V193.159V193.169Z" fill="white"/>
<path d="M248.213 199.034C245.752 199.034 243.485 198.637 241.394 197.832C239.303 197.036 237.498 195.907 235.972 194.454C234.445 193.002 233.261 191.299 232.419 189.347C231.577 187.395 231.151 185.257 231.151 182.953C231.151 180.649 231.577 178.512 232.419 176.56C233.261 174.607 234.454 172.905 235.99 171.452C237.526 169.999 239.34 168.88 241.412 168.075C243.485 167.279 245.733 166.872 248.167 166.872C250.6 166.872 252.885 167.27 254.94 168.075C256.994 168.871 258.789 169.999 260.315 171.452C261.842 172.905 263.036 174.598 263.887 176.541C264.747 178.484 265.173 180.622 265.173 182.963C265.173 185.303 264.747 187.413 263.887 189.384C263.026 191.355 261.833 193.057 260.315 194.491C258.789 195.926 257.003 197.045 254.94 197.841C252.885 198.637 250.637 199.044 248.213 199.044V199.034ZM248.167 192.909C249.555 192.909 250.841 192.669 252.006 192.197C253.172 191.725 254.209 191.04 255.097 190.152C255.985 189.264 256.67 188.209 257.16 186.997C257.651 185.785 257.891 184.434 257.891 182.953C257.891 181.473 257.651 180.122 257.16 178.91C256.67 177.698 255.994 176.643 255.115 175.755C254.246 174.866 253.209 174.182 252.025 173.71C250.841 173.238 249.554 172.997 248.157 172.997C246.76 172.997 245.483 173.238 244.317 173.71C243.152 174.182 242.115 174.866 241.227 175.755C240.339 176.643 239.654 177.698 239.164 178.91C238.673 180.122 238.433 181.473 238.433 182.953C238.433 184.434 238.673 185.748 239.164 186.969C239.654 188.2 240.33 189.254 241.209 190.143C242.088 191.031 243.115 191.716 244.299 192.187C245.483 192.659 246.769 192.9 248.167 192.9V192.909Z" fill="white"/>
<path d="M270.641 198.498V167.409H277.793V198.498H270.641ZM275.702 185.97V179.974H286.537V185.97H275.702ZM287.647 183.749L281.031 182.954L291.117 167.409H298.713L287.656 183.749H287.647ZM290.849 198.498L281.17 183.527L286.99 180.021L299.028 198.498H290.858H290.849Z" fill="white"/>
<path d="M316.96 199.035C314.564 199.035 312.334 198.646 310.28 197.859C308.225 197.073 306.44 195.953 304.932 194.51C303.423 193.057 302.248 191.355 301.397 189.402C300.555 187.45 300.129 185.304 300.129 182.963C300.129 180.622 300.555 178.475 301.397 176.523C302.239 174.57 303.423 172.868 304.95 171.415C306.477 169.963 308.263 168.843 310.298 168.066C312.343 167.279 314.573 166.891 317.006 166.891C319.699 166.891 322.132 167.353 324.316 168.288C326.49 169.222 328.322 170.592 329.803 172.396L325.186 176.661C324.122 175.449 322.937 174.533 321.633 173.932C320.328 173.321 318.912 173.025 317.367 173.025C315.914 173.025 314.582 173.266 313.37 173.738C312.158 174.21 311.103 174.894 310.215 175.782C309.327 176.671 308.642 177.726 308.151 178.938C307.661 180.15 307.42 181.501 307.42 182.981C307.42 184.461 307.661 185.812 308.151 187.025C308.642 188.237 309.327 189.291 310.215 190.18C311.103 191.068 312.158 191.753 313.37 192.225C314.582 192.696 315.914 192.937 317.367 192.937C318.903 192.937 320.328 192.632 321.633 192.03C322.937 191.42 324.122 190.494 325.186 189.254L329.803 193.52C328.322 195.324 326.49 196.703 324.316 197.647C322.142 198.59 319.69 199.072 316.969 199.072L316.96 199.035Z" fill="white"/>
<path d="M337.308 191.836L339.214 186.377H355.203L357.155 191.836H337.299H337.308Z" fill="white"/>
<path d="M365.241 198.498H357.691L347.735 174.478L337.751 198.498H330.377L344.238 167.409H351.344L351.362 167.446L353.166 171.48L365.241 198.498Z" fill="white"/>
<path d="M68.896 236.813V225.044H71.0241V233.612L78.2412 225.044H80.175V236.813H78.0469V228.245L70.8483 236.813H68.896Z" fill="white"/>
<path d="M84.3022 236.813V225.044H86.5044L91.5656 233.751H90.6774L95.8774 225.044H97.876V236.813H95.9421V227.44L96.2937 227.644L91.5379 235.481H90.6033L85.8289 227.487L86.2546 227.394V236.813H84.3022Z" fill="white"/>
<path d="M107.268 236.943C106.009 236.943 104.899 236.684 103.946 236.165C102.993 235.647 102.253 234.935 101.725 234.037C101.198 233.131 100.939 232.094 100.939 230.928C100.939 229.763 101.198 228.726 101.707 227.819C102.216 226.913 102.919 226.209 103.817 225.701C104.714 225.192 105.723 224.933 106.851 224.933C107.98 224.933 108.998 225.182 109.868 225.691C110.738 226.191 111.422 226.903 111.922 227.81C112.422 228.717 112.662 229.781 112.662 230.993C112.662 231.086 112.662 231.187 112.653 231.308C112.653 231.428 112.634 231.539 112.616 231.641H102.604V230.105H111.506L110.636 230.642C110.654 229.883 110.497 229.217 110.173 228.624C109.849 228.032 109.396 227.57 108.832 227.237C108.258 226.903 107.601 226.737 106.842 226.737C106.083 226.737 105.445 226.903 104.862 227.237C104.288 227.57 103.835 228.032 103.511 228.634C103.187 229.235 103.021 229.92 103.021 230.688V231.039C103.021 231.826 103.206 232.52 103.567 233.14C103.928 233.76 104.436 234.232 105.084 234.574C105.732 234.916 106.481 235.083 107.323 235.083C108.017 235.083 108.656 234.963 109.22 234.731C109.794 234.491 110.293 234.139 110.719 233.667L111.894 235.046C111.357 235.666 110.701 236.138 109.905 236.471C109.109 236.795 108.23 236.961 107.249 236.961L107.268 236.943Z" fill="white"/>
<path d="M115.974 236.813V225.044H118.102V230.04H124.81V225.044H126.939V236.813H124.81V231.882H118.102V236.813H115.974Z" fill="white"/>
<path d="M131.093 236.813V225.044H133.221V233.612L140.438 225.044H142.372V236.813H140.244V228.245L133.045 236.813H131.093Z" fill="white"/>
<path d="M152.836 236.813V221.269H159.517C161.201 221.269 162.533 221.611 163.496 222.286C164.458 222.971 164.939 223.961 164.939 225.266C164.939 226.57 164.476 227.514 163.56 228.19C162.644 228.865 161.432 229.198 159.943 229.198L160.34 228.532C162.071 228.532 163.403 228.874 164.328 229.568C165.254 230.253 165.716 231.261 165.716 232.575C165.716 233.889 165.235 234.944 164.264 235.694C163.292 236.443 161.858 236.813 159.943 236.813H152.836ZM155.039 228.106H159.369C160.451 228.106 161.275 227.893 161.849 227.459C162.422 227.033 162.7 226.404 162.7 225.571C162.7 224.738 162.413 224.091 161.849 223.665C161.275 223.239 160.451 223.017 159.369 223.017H155.039V228.106ZM155.039 235.055H159.905C161.09 235.055 161.978 234.833 162.58 234.398C163.181 233.963 163.477 233.288 163.477 232.39C163.477 231.493 163.181 230.827 162.58 230.41C161.978 229.994 161.09 229.79 159.905 229.79H155.039V235.055Z" fill="white"/>
<path d="M169.529 236.942C169.113 236.942 168.761 236.794 168.465 236.507C168.169 236.22 168.021 235.85 168.021 235.406C168.021 234.962 168.169 234.601 168.465 234.314C168.761 234.037 169.113 233.889 169.529 233.889C169.946 233.889 170.269 234.027 170.565 234.314C170.852 234.592 171 234.962 171 235.406C171 235.85 170.852 236.22 170.565 236.507C170.279 236.794 169.936 236.942 169.529 236.942Z" fill="white"/>
<path d="M180.438 236.813V221.269H182.64V233.26L191.837 221.269H193.882V236.813H191.708V224.84L182.492 236.813H180.447H180.438Z" fill="white"/>
<path d="M198.821 236.942C198.405 236.942 198.053 236.794 197.757 236.507C197.461 236.22 197.313 235.85 197.313 235.406C197.313 234.962 197.461 234.601 197.757 234.314C198.053 234.037 198.405 233.889 198.821 233.889C199.238 233.889 199.561 234.027 199.857 234.314C200.144 234.592 200.292 234.962 200.292 235.406C200.292 235.85 200.144 236.22 199.857 236.507C199.571 236.794 199.228 236.942 198.821 236.942Z" fill="white"/>
<path d="M209.722 236.813V221.269H221.445V223.156H211.915V227.597H216.754C218.604 227.597 220.011 227.986 220.973 228.754C221.935 229.522 222.416 230.642 222.416 232.103C222.416 233.565 221.898 234.777 220.853 235.592C219.807 236.406 218.317 236.813 216.374 236.813H209.712H209.722ZM211.924 235.055H216.3C217.586 235.055 218.558 234.815 219.224 234.324C219.881 233.834 220.214 233.112 220.214 232.15C220.214 230.281 218.91 229.355 216.31 229.355H211.933V235.064L211.924 235.055Z" fill="white"/>
<path d="M230.845 236.943C229.587 236.943 228.476 236.684 227.523 236.165C226.57 235.647 225.83 234.935 225.303 234.037C224.775 233.131 224.516 232.094 224.516 230.928C224.516 229.763 224.775 228.726 225.284 227.819C225.793 226.913 226.496 226.209 227.394 225.701C228.291 225.192 229.3 224.933 230.429 224.933C231.557 224.933 232.575 225.182 233.445 225.691C234.315 226.191 234.999 226.903 235.499 227.81C235.999 228.717 236.239 229.781 236.239 230.993C236.239 231.086 236.239 231.187 236.23 231.308C236.23 231.428 236.212 231.539 236.193 231.641H226.182V230.105H235.083L234.213 230.642C234.231 229.883 234.074 229.217 233.75 228.624C233.426 228.032 232.973 227.57 232.409 227.237C231.835 226.903 231.178 226.737 230.419 226.737C229.661 226.737 229.022 226.903 228.439 227.237C227.866 227.57 227.412 228.032 227.088 228.634C226.765 229.235 226.598 229.92 226.598 230.688V231.039C226.598 231.826 226.783 232.52 227.144 233.14C227.505 233.76 228.014 234.232 228.661 234.574C229.309 234.916 230.058 235.083 230.9 235.083C231.594 235.083 232.233 234.963 232.797 234.731C233.371 234.491 233.871 234.139 234.296 233.667L235.471 235.046C234.935 235.666 234.278 236.138 233.482 236.471C232.686 236.795 231.807 236.961 230.826 236.961L230.845 236.943Z" fill="white"/>
<path d="M237.396 236.794L237.526 234.999C237.628 235.018 237.73 235.027 237.813 235.046C237.905 235.064 237.979 235.064 238.053 235.064C238.525 235.064 238.905 234.898 239.173 234.574C239.441 234.25 239.654 233.815 239.784 233.278C239.913 232.742 240.015 232.131 240.071 231.446C240.126 230.762 240.172 230.086 240.2 229.401L240.404 225.053H249.443V236.822H247.315V226.293L247.824 226.913H241.782L242.273 226.265L242.115 229.531C242.069 230.567 241.986 231.539 241.875 232.436C241.754 233.343 241.579 234.13 241.329 234.814C241.088 235.499 240.755 236.026 240.33 236.415C239.904 236.804 239.367 236.989 238.701 236.989C238.507 236.989 238.303 236.97 238.09 236.933C237.878 236.896 237.646 236.85 237.387 236.785L237.396 236.794Z" fill="white"/>
<path d="M258.622 236.942C257.438 236.942 256.383 236.683 255.467 236.165C254.551 235.647 253.82 234.934 253.293 234.018C252.756 233.111 252.497 232.075 252.497 230.919C252.497 229.762 252.765 228.716 253.293 227.81C253.829 226.903 254.551 226.2 255.467 225.691C256.383 225.182 257.438 224.923 258.622 224.923C259.807 224.923 260.843 225.182 261.768 225.691C262.694 226.2 263.415 226.903 263.943 227.8C264.47 228.698 264.729 229.734 264.729 230.919C264.729 232.103 264.47 233.121 263.943 234.028C263.415 234.934 262.694 235.637 261.768 236.156C260.843 236.674 259.797 236.933 258.622 236.933V236.942ZM258.622 235.073C259.381 235.073 260.057 234.907 260.658 234.564C261.259 234.222 261.731 233.741 262.064 233.111C262.407 232.482 262.573 231.751 262.573 230.928C262.573 230.104 262.407 229.355 262.064 228.744C261.722 228.134 261.25 227.652 260.658 227.31C260.057 226.968 259.381 226.801 258.622 226.801C257.864 226.801 257.197 226.968 256.605 227.31C256.013 227.652 255.541 228.124 255.18 228.744C254.829 229.355 254.644 230.086 254.644 230.928C254.644 231.77 254.819 232.482 255.18 233.111C255.532 233.741 256.013 234.222 256.605 234.564C257.197 234.907 257.873 235.073 258.622 235.073Z" fill="white"/>
<path d="M267.821 236.813V225.044H273.28C274.659 225.044 275.741 225.303 276.537 225.83C277.333 226.358 277.721 227.098 277.721 228.06C277.721 229.023 277.351 229.763 276.602 230.29C275.852 230.818 274.862 231.077 273.641 231.077L273.974 230.503C275.38 230.503 276.426 230.762 277.101 231.28C277.786 231.798 278.119 232.557 278.119 233.566C278.119 234.574 277.74 235.379 276.972 235.953C276.204 236.527 275.047 236.804 273.474 236.804H267.812L267.821 236.813ZM269.912 230.105H273.113C273.928 230.105 274.547 229.957 274.964 229.652C275.389 229.346 275.593 228.921 275.593 228.375C275.593 227.829 275.38 227.394 274.964 227.107C274.538 226.83 273.928 226.682 273.113 226.682H269.912V230.105ZM269.912 235.166H273.335C274.224 235.166 274.89 235.028 275.334 234.759C275.778 234.482 276 234.047 276 233.436C276 232.825 275.797 232.363 275.389 232.067C274.982 231.78 274.344 231.632 273.465 231.632H269.912V235.166Z" fill="white"/>
<path d="M284.808 236.943C283.938 236.943 283.17 236.795 282.513 236.499C281.856 236.203 281.347 235.796 280.996 235.268C280.644 234.741 280.459 234.149 280.459 233.483C280.459 232.816 280.607 232.271 280.912 231.752C281.218 231.234 281.708 230.818 282.402 230.513C283.096 230.207 284.021 230.05 285.187 230.05H288.916V231.586H285.27C284.206 231.586 283.485 231.762 283.115 232.122C282.744 232.474 282.559 232.909 282.559 233.409C282.559 233.982 282.791 234.445 283.244 234.797C283.707 235.148 284.336 235.315 285.15 235.315C285.964 235.315 286.649 235.139 287.25 234.778C287.852 234.417 288.287 233.908 288.546 233.224L288.971 234.685C288.694 235.379 288.194 235.935 287.482 236.342C286.769 236.749 285.872 236.952 284.799 236.952L284.808 236.943ZM288.675 236.814V234.325L288.564 233.862V229.624C288.564 228.717 288.305 228.024 287.778 227.524C287.25 227.024 286.464 226.784 285.409 226.784C284.715 226.784 284.031 226.895 283.364 227.126C282.698 227.357 282.134 227.663 281.68 228.051L280.792 226.451C281.403 225.96 282.124 225.59 282.976 225.331C283.827 225.072 284.715 224.942 285.65 224.942C287.26 224.942 288.509 225.331 289.379 226.117C290.248 226.904 290.692 228.098 290.692 229.717V236.823H288.675V236.814Z" fill="white"/>
<path d="M47.6785 116.306L57.6066 89.0665L65.3882 67.6742L72.559 47.9845L74.206 43.4322L75.964 38.6208L37.334 0H215.402L201.005 39.583L200.755 40.2585L196.258 52.6108L180.927 60.0963L190.818 67.5724L184.378 85.2359L173.071 116.306H47.6785Z" fill="white"/>
<path d="M62.667 10.4932L87.8158 36.7153L84.7902 45.0427L84.0685 47.0136L82.4122 51.5751L75.2414 71.2649L72.2435 79.4998L72.2158 79.5831L67.4599 92.6571L62.667 105.814H165.724L174.523 81.6464L178.307 71.2649L160.977 58.1538L187.847 45.0427L190.882 36.7153L191.141 35.9936L200.421 10.4932H62.667ZM140.621 79.5831H106.867L106.895 79.4998L109.893 71.2649H143.647L140.621 79.5831ZM153.195 45.0427H119.442L122.467 36.7153H156.221L153.195 45.0427Z" fill="#111111"/>
<path d="M260.222 36.7148L257.197 45.0423H256.752L259.778 36.7148H260.222Z" fill="#111111"/>
<path d="M333.549 55.5254H315.164L328.211 68.581L322.141 85.2266L310.834 116.306H185.432L201.809 71.3383L232.806 71.2643L210.063 48.5211L212.709 41.3966L215.753 33.0136L216.031 32.2919L227.717 0H353.184L333.549 55.5254Z" fill="white"/>
<path d="M338.342 10.4834L326.129 45.033H304.746L307.679 36.7148H260.222L257.196 45.033H289.83L316.062 71.2644L313.027 79.5825L312.277 81.6459L303.487 105.814H200.421L205.214 92.6566L209.97 79.5918H247.647V79.5825H278.375L281.41 71.2644H247.647L222.239 45.8565L222.545 45.033L225.57 36.7148L225.866 35.9283L235.073 10.4834H338.342Z" fill="#F8BC06"/>
</svg>
