<?xml version="1.0" encoding="UTF-8"?>
<svg id="_Слой_2" data-name="Слой 2" xmlns="http://www.w3.org/2000/svg" viewBox="0 0 794.65 254.84">
  <defs>
    <style>
      .cls-1 {
        fill: #7c20dc;
      }

      .cls-2 {
        fill: #8633f2;
      }
    </style>
  </defs>
  <g id="_Слой_1-2" data-name="Слой 1">
    <g>
      <g>
        <path class="cls-1" d="m288.1,210.63h-12.69c-.29,0-.44-.18-.44-.55l.11-76.94c0-.29.18-.44.55-.44h12.47c.36,0,.55.15.55.44l-.11,30.46h16.79v-30.46c0-.29.15-.44.44-.44h12.47c.36,0,.55.15.55.44l.22,76.94c0,.37-.18.55-.55.55h-12.58c-.37,0-.55-.18-.55-.55v-32.92h-16.79v32.92c0,.37-.15.55-.44.55Z"/>
        <path class="cls-1" d="m341.36,210.63h-12.69c-.37,0-.55-.18-.55-.55l.11-76.94c0-.29.15-.44.44-.44h12.58c.29,0,.44.15.44.44l.11,76.94c0,.37-.15.55-.44.55Z"/>
        <path class="cls-1" d="m364.77,210.63h-12.69c-.29,0-.44-.18-.44-.55l.22-76.94c0-.29.15-.44.44-.44h22.64c4.05,0,7.77.98,11.16,2.95s6.1,4.61,8.12,7.93,3.04,7.07,3.04,11.27c0,2.73-.42,5.21-1.26,7.44-.84,2.22-1.81,4.1-2.93,5.63-1.11,1.53-2.12,2.66-3.04,3.39,4.05,4.48,6.07,9.75,6.07,15.8l.11,22.97c0,.37-.18.55-.55.55h-12.69c-.29,0-.44-.11-.44-.33v-23.19c0-2.7-.95-5.03-2.84-7-1.9-1.97-4.23-2.95-7-2.95h-7.38l-.11,32.92c0,.37-.15.55-.44.55Zm10.17-64.53h-9.62v17.61h9.62c2.3,0,4.35-.86,6.15-2.57,1.8-1.71,2.71-3.81,2.71-6.29s-.88-4.42-2.62-6.15-3.83-2.6-6.23-2.6Z"/>
        <path class="cls-1" d="m442.26,210.63h-36.2c-.29,0-.44-.18-.44-.55l.11-76.94c0-.29.15-.44.44-.44h35.98c.29,0,.44.18.44.55v12.52c0,.29-.15.44-.44.44h-22.97v17.5h22.97c.29,0,.44.15.44.44l.11,12.69c0,.29-.15.44-.44.44h-23.08v19.58h23.08c.29,0,.44.18.44.55v12.8c0,.29-.15.44-.44.44Z"/>
        <path class="cls-1" d="m471.68,211.72c-3.97,0-7.64-1.02-10.99-3.06-3.32-2.04-5.97-4.77-7.96-8.18-1.99-3.41-2.98-7.15-2.98-11.24v-5.14c0-.4.18-.6.55-.6h12.58c.29,0,.44.2.44.6v5.14c0,2.44.82,4.55,2.46,6.32,1.64,1.77,3.61,2.65,5.91,2.65s4.32-.9,5.96-2.71,2.46-3.89,2.46-6.26c0-2.73-1.79-5.12-5.36-7.16-.58-.36-1.34-.81-2.27-1.34s-2.03-1.14-3.31-1.83c-1.28-.69-2.52-1.38-3.72-2.05-1.2-.67-2.37-1.32-3.5-1.94-4.08-2.41-7.12-5.42-9.11-9.05-1.99-3.63-2.98-7.7-2.98-12.22,0-4.16,1.02-7.91,3.06-11.27,2.04-3.32,4.71-5.95,8.01-7.9,3.3-1.95,6.88-2.93,10.75-2.93s7.62.98,10.94,2.95c3.32,2.01,5.97,4.67,7.96,7.98,1.99,3.32,2.98,7.04,2.98,11.16v9.19c0,.29-.15.44-.44.44h-12.58c-.29,0-.44-.14-.44-.44l-.11-9.19c0-2.62-.82-4.76-2.46-6.4s-3.59-2.46-5.85-2.46-4.27.88-5.91,2.62c-1.64,1.75-2.46,3.83-2.46,6.23s.52,4.48,1.56,6.12c1.04,1.64,2.94,3.21,5.71,4.7.29.15.97.51,2.02,1.09,1.06.58,2.23,1.23,3.53,1.94s2.47,1.35,3.53,1.91c1.06.57,1.7.9,1.91,1.01,3.72,2.08,6.66,4.63,8.83,7.66,2.17,3.03,3.25,6.75,3.25,11.16s-.98,8.09-2.95,11.48c-2.01,3.39-4.67,6.07-7.98,8.04-3.32,1.97-7,2.95-11.05,2.95Z"/>
        <path class="cls-1" d="m549.55,211.72c-3.97,0-7.64-1.02-10.99-3.06-3.32-2.04-5.97-4.77-7.96-8.18-1.99-3.41-2.98-7.15-2.98-11.24v-5.14c0-.4.18-.6.55-.6h12.58c.29,0,.44.2.44.6v5.14c0,2.44.82,4.55,2.46,6.32,1.64,1.77,3.61,2.65,5.91,2.65s4.32-.9,5.96-2.71,2.46-3.89,2.46-6.26c0-2.73-1.79-5.12-5.36-7.16-.58-.36-1.34-.81-2.27-1.34s-2.03-1.14-3.31-1.83c-1.28-.69-2.52-1.38-3.72-2.05-1.2-.67-2.37-1.32-3.5-1.94-4.08-2.41-7.12-5.42-9.11-9.05-1.99-3.63-2.98-7.7-2.98-12.22,0-4.16,1.02-7.91,3.06-11.27,2.04-3.32,4.71-5.95,8.01-7.9,3.3-1.95,6.88-2.93,10.75-2.93s7.62.98,10.94,2.95c3.32,2.01,5.97,4.67,7.96,7.98,1.99,3.32,2.98,7.04,2.98,11.16v9.19c0,.29-.15.44-.44.44h-12.58c-.29,0-.44-.14-.44-.44l-.11-9.19c0-2.62-.82-4.76-2.46-6.4s-3.59-2.46-5.85-2.46-4.27.88-5.91,2.62c-1.64,1.75-2.46,3.83-2.46,6.23s.52,4.48,1.56,6.12c1.04,1.64,2.94,3.21,5.71,4.7.29.15.97.51,2.02,1.09,1.06.58,2.23,1.23,3.53,1.94s2.47,1.35,3.53,1.91c1.06.57,1.7.9,1.91,1.01,3.72,2.08,6.66,4.63,8.83,7.66,2.17,3.03,3.25,6.75,3.25,11.16s-.98,8.09-2.95,11.48c-2.01,3.39-4.67,6.07-7.98,8.04-3.32,1.97-7,2.95-11.05,2.95Z"/>
        <path class="cls-1" d="m603.2,210.63h-12.63c-.33,0-.49-.18-.49-.55v-63.87h-14.55c-.37,0-.55-.18-.55-.55l.11-12.52c0-.29.15-.44.44-.44h42.55c.4,0,.6.15.6.44v12.52c0,.37-.15.55-.44.55h-14.71l.11,63.87c0,.37-.15.55-.44.55Z"/>
        <path class="cls-1" d="m644.7,211.72c-3.94,0-7.58-1.02-10.94-3.06-3.36-2.04-6.03-4.79-8.01-8.23-1.99-3.45-2.98-7.21-2.98-11.29l.22-56c0-.29.15-.44.44-.44h12.58c.29,0,.44.15.44.44v56c0,2.52.8,4.66,2.41,6.42,1.6,1.77,3.55,2.65,5.85,2.65s4.41-.88,6.02-2.65c1.6-1.77,2.41-3.91,2.41-6.42v-56c0-.29.15-.44.44-.44h12.58c.29,0,.44.15.44.44l.22,56c0,4.12-.98,7.91-2.95,11.37-2.01,3.43-4.67,6.15-7.98,8.18-3.32,2.02-7.04,3.04-11.16,3.04Z"/>
        <path class="cls-1" d="m696.22,210.52l-20.07.11c-.37,0-.55-.18-.55-.55l.22-76.94c0-.29.15-.44.44-.44l20.94-.11c4.16-.11,7.91.84,11.27,2.84,3.39,2.01,6.1,4.71,8.12,8.12,2.02,3.41,3.04,7.17,3.04,11.29v32.16c0,4.3-1.04,8.24-3.12,11.81-2.12,3.54-4.92,6.35-8.42,8.45-3.5,2.1-7.46,3.18-11.87,3.25Zm.98-64.53l-7.82.11-.11,50.75h6.95c2.77,0,5.1-.96,7-2.9,1.9-1.93,2.84-4.25,2.84-6.94v-32.26c0-2.37-.88-4.44-2.62-6.21s-3.83-2.62-6.23-2.54Z"/>
        <path class="cls-1" d="m741.66,210.63h-12.69c-.37,0-.55-.18-.55-.55l.11-76.94c0-.29.15-.44.44-.44h12.58c.29,0,.44.15.44.44l.11,76.94c0,.37-.15.55-.44.55Z"/>
        <path class="cls-1" d="m772.67,211.72c-3.97,0-7.64-1.02-10.99-3.06-3.32-2.04-5.99-4.77-8.01-8.18-2.02-3.41-3.04-7.15-3.04-11.24l.11-35.49c0-4.16,1-7.89,3.01-11.21,1.97-3.35,4.63-6.04,7.98-8.07,3.35-2.02,7-3.04,10.94-3.04s7.75,1,10.99,3.01c3.28,2.01,5.92,4.69,7.9,8.07,1.99,3.37,2.98,7.12,2.98,11.24l.11,35.49c0,4.08-.98,7.82-2.95,11.21-2.01,3.43-4.67,6.16-7.98,8.2-3.32,2.04-7,3.06-11.05,3.06Zm0-13.51c2.26,0,4.23-.92,5.91-2.76,1.68-1.84,2.52-3.91,2.52-6.21l-.11-35.49c0-2.48-.78-4.58-2.35-6.29-1.57-1.71-3.55-2.57-5.96-2.57s-4.27.84-5.91,2.52-2.46,3.79-2.46,6.34v35.49c0,2.44.82,4.55,2.46,6.32,1.64,1.77,3.61,2.65,5.91,2.65Z"/>
      </g>
      <g>
        <path class="cls-2" d="m224.28,84.96c-6.04-1.6-12.49-.41-17.85,2.82l-73,44.04c-5.77,3.48-9.29,9.72-9.29,16.45v43.24c0,6.66,3.55,12.91,9.29,16.34l73.64,43.83h0c3.54,2.11,7.52,3.16,11.51,3.16,5.71,0,11.42-2.16,15.83-6.5s6.67-10.5,6.67-16.72v-124.88c0-10-6.67-19.09-16.81-21.77Zm-64.17,77.06c0-2.67,1.4-5.14,3.68-6.51l29.84-18c5.05-3.05,11.5.59,11.5,6.49v52.49c0,5.37-5.84,8.69-10.46,5.94l-30.84-18.35c-2.3-1.37-3.72-3.86-3.72-6.54v-15.53Z"/>
        <path class="cls-2" d="m16.81,169.87c6.04,1.6,12.49.41,17.85-2.82l73-44.04c5.77-3.48,9.29-9.72,9.29-16.45v-43.24c0-6.66-3.55-12.91-9.29-16.34L34.01,3.16h0c-3.54-2.11-7.52-3.16-11.51-3.16-5.71,0-11.42,2.16-15.83,6.5C2.24,10.87,0,17,0,23.22v124.88c0,10,6.67,19.09,16.81,21.77Zm64.17-77.06c0,2.67-1.4,5.14-3.68,6.51l-29.84,18c-5.05,3.05-11.5-.59-11.5-6.49v-52.49c0-5.37,5.84-8.69,10.46-5.94l30.84,18.35c2.3,1.37,3.72,3.86,3.72,6.54v15.53Z"/>
      </g>
    </g>
  </g>
</svg>