<?xml version="1.0" encoding="UTF-8"?>
<svg id="_Слой_2" data-name="Слой 2" xmlns="http://www.w3.org/2000/svg" viewBox="0 0 347.81 174.8">
  <defs>
    <style>
      .cls-1 {
        fill: #1a8662;
      }
    </style>
  </defs>
  <g id="_Слой_1-2" data-name="Слой 1">
    <g>
      <path class="cls-1" d="m313.36,57.15c-.65-.24-1.33-.33-2.01-.33l-12.54-.02c-1.55,0-2.99.72-4.16,2.08-1.17,1.36-1.79,3.08-1.79,4.98v73.02c0,1.64.49,3.23,1.41,4.59,1.08,1.59,2.69,2.47,4.54,2.47h12.9c1.51,0,2.95-.69,4.16-1.99,1.27-1.37,1.94-3.12,1.94-5.07V63.86c0-1.79-.62-3.45-1.8-4.82-.76-.88-1.66-1.52-2.66-1.89Z"/>
      <path class="cls-1" d="m311.35,25.2h-12.52c-20.11,0-36.46,16.36-36.46,36.46v76.68c0,20.11,16.36,36.46,36.46,36.46h12.52c20.11,0,36.46-16.36,36.46-36.46V61.66c0-20.11-16.36-36.46-36.46-36.46Zm21.13,111.68c0,5.63-2.08,10.98-5.86,15.04-4,4.31-9.29,6.68-14.9,6.68h-12.9c-6.67,0-12.9-3.33-16.68-8.9-2.58-3.8-3.94-8.23-3.94-12.82V63.86c0-5.39,1.9-10.56,5.37-14.58,3.99-4.61,9.4-7.14,15.25-7.14h.02l12.54.02c2.51,0,4.91.43,7.14,1.26,3.26,1.22,6.23,3.3,8.57,6l.02.02.02.02c3.45,4.01,5.35,9.12,5.35,14.39v73.02Z"/>
      <path class="cls-1" d="m71.42,28.22h-8.9c-2.37,0-4.53,1.37-5.54,3.52L19.3,111.67V34.35c0-3.39-2.74-6.13-6.13-6.13h-7.04c-3.39,0-6.13,2.74-6.13,6.13v130.86c0,3.39,2.74,6.13,6.13,6.13h7.04c3.39,0,6.13-2.74,6.13-6.13v-5.83l16.82-35.75,20.84,44.19c1.01,2.15,3.17,3.51,5.54,3.51h8.91c4.49,0,7.45-4.67,5.55-8.73l-29.43-62.83,29.43-62.83c1.9-4.06-1.06-8.73-5.55-8.73Z"/>
      <path class="cls-1" d="m150.4,36.82c-2.5-2.61-5.44-4.73-8.75-6.3-3.22-1.52-6.68-2.29-10.3-2.29h-19.52c-3.41,0-6.75.69-9.94,2.06-3.25,1.39-6.13,3.27-8.55,5.58-2.66,2.43-4.73,5.45-6.21,9.05-1.51,3.67-2.28,7.26-2.28,10.69v2.13c0,3.39,2.75,6.13,6.13,6.13h7.04c3.39,0,6.13-2.75,6.13-6.13v-2.13c0-1.85.62-3.59,1.84-5.18,1.44-1.87,3.51-2.89,5.83-2.89h19.52c2.41,0,4.56,1.19,6.05,3.36,1.23,1.79,1.82,3.46,1.82,5.11v26.09c0,2.33-1.03,4.4-2.89,5.83-1.59,1.22-3.26,1.84-4.98,1.84h-13.28c-3.39,0-6.13,2.75-6.13,6.13v7.04c0,3.39,2.75,6.13,6.13,6.13h12.91c2.48-.39,4.76.42,6.3,2.26,1.28,1.53,1.95,3.47,1.95,5.61v27.68c0,2.48-.62,4.31-1.9,5.58-1.7,1.7-4.22,1.89-5.97,1.89h-19.52c-1.72,0-3.36-.7-4.85-2.07-1.17-1.06-2.03-2.24-2.53-3.49l-.29-.73v-3.11c0-3.39-2.75-6.13-6.13-6.13h-7.04c-3.39,0-6.13,2.75-6.13,6.13v2.33c0,3.39.72,6.72,2.13,9.88,1.44,3.23,3.42,6.09,5.9,8.5,2.37,2.32,5.16,4.21,8.28,5.65,2.94,1.35,8.05,2.35,11.29,2.35h18.9c3.86,0,7.48-.64,10.77-1.92,3.25-1.25,6.1-3.06,8.48-5.39,2.39-2.33,4.34-5.18,5.78-8.48,1.42-3.24,2.14-6.95,2.14-11v-27.68c0-5.11-1.77-10.3-5.27-15.42l-1.63-2.4,1.72-2.33c1.62-2.19,2.9-4.59,3.83-7.14.89-2.46,1.35-5,1.35-7.56v-26.09c0-3.4-.73-6.81-2.16-10.13-1.46-3.38-3.47-6.43-5.97-9.05Z"/>
      <path class="cls-1" d="m240.57,0h-7.43c-3.37,0-6.4,2.07-7.62,5.21l-33.93,87.16V6.13c0-3.39-2.75-6.13-6.13-6.13h-7.04c-3.39,0-6.13,2.75-6.13,6.13v128.88c0,4.52,3.66,8.18,8.18,8.18h7.48c3.35,0,6.37-2.05,7.6-5.17l33.9-85.68v84.72c0,3.39,2.75,6.13,6.13,6.13h7.04c3.39,0,6.13-2.75,6.13-6.13V8.18c0-4.52-3.66-8.18-8.18-8.18Z"/>
      <rect class="cls-1" x="172.26" y="152.08" width="76.43" height="19.32" rx="4.7" ry="4.7"/>
    </g>
  </g>
</svg>