<?xml version="1.0" encoding="utf-8"?>
<!-- Generator: Adobe Illustrator 27.4.1, SVG Export Plug-In . SVG Version: 6.00 Build 0)  -->
<svg version="1.1" id="Слой_1" xmlns="http://www.w3.org/2000/svg" xmlns:xlink="http://www.w3.org/1999/xlink" x="0px" y="0px"
	 viewBox="0 0 1275 265.9" style="enable-background:new 0 0 1275 265.9;" xml:space="preserve">
<style type="text/css">
	.st0{fill:#F1F2F3;}
	.st1{fill:#E31F0E;}
</style>
<path class="st0" d="M234.9,65.3h-36.4c-21.4,0-37.8,6.4-49.3,19.3c-1,1.2-2,2.3-2.9,3.5c-0.8-1.1-1.7-2.2-2.6-3.3
	c-11.2-13-25.9-19.6-44.4-19.6H57.4c-4.4,0-7.9,3.5-7.9,7.9v119.3c0,4.4,3.6,7.9,7.9,7.9h36.4c21.4,0,37.8-6.4,49.3-19.3
	c1-1.2,2-2.3,2.9-3.5c0.8,1.1,1.7,2.2,2.6,3.3c11.2,13,25.9,19.6,44.4,19.6h41.9c4.4,0,7.9-3.5,7.9-7.9V73.2
	C242.8,68.8,239.3,65.3,234.9,65.3z M132.8,145.3c-1.6,9.6-5,17.3-10.3,23c-7.6,8.2-16.8,12.3-27.7,12.3H78.5c-2.2,0-4-1.8-4-4V88.5
	c0-2.2,1.8-4,4-4h19.2c10.9,0,19.7,4.6,26.3,13.7c4.5,6.2,7.5,13.4,8.9,21.5c0.7,3.8,1,7.8,1,12
	C133.9,136.6,133.5,141.2,132.8,145.3z M217.8,177.3L217.8,177.3c0,2.2-1.8,4-4,4h-19.2c-10.9,0-19.7-4.6-26.3-13.7
	c-4.5-6.2-7.5-13.4-8.9-21.5c-0.7-3.8-1-7.8-1-12c0-4.9,0.4-9.5,1.1-13.6c1.6-9.6,5-17.2,10.3-22.9c7.6-8.2,16.8-12.3,27.7-12.3
	h16.3c2.2,0,4,1.8,4,4V177.3z"/>
<path class="st1" d="M225.4,0H66.8C29.9,0,0,29.9,0,66.9v132.2c0,36.9,29.9,66.8,66.8,66.8h158.6c36.9,0,66.8-29.9,66.8-66.8V66.8
	C292.2,29.9,262.3,0,225.4,0z M268.6,199c0,23.8-19.4,43.2-43.2,43.2H66.8c-23.8,0-43.2-19.4-43.2-43.2V66.8
	C23.6,43,43,23.6,66.8,23.6h158.6c23.8,0,43.2,19.4,43.2,43.2V199z"/>
<path class="st0" d="M406.4,96.2c-3.4-3.2-7.9-5.8-13.4-7.7c-5.5-1.9-12.5-2.9-20.7-2.9h-16.7c-0.1,0-0.2,0-0.3,0h-5.6H347h-1.5V87
	v2.4v8.1v74.2c0,1.1,0,8.4,0,8.4s8.4,0,10,0h16.7c25.2,0,43.5-9,43.5-36v-23.8c0.1-4.5-0.6-8.9-2.1-13.1
	C412.2,103.1,409.7,99.4,406.4,96.2z M400.9,143.6c0,12.2-10,22.1-22.1,22.1h-13.2c-1.7,0-6,0-6,0s0-4.4,0-6v-59.5h19.3
	c12.2,0,22.1,10,22.1,22.1L400.9,143.6z M486.9,85.5h-35.5c-0.1,0-0.1,0-0.2,0h-12.8h-6.6v19.8v55.3c0,10.8,8.8,19.5,19.5,19.5h55.1
	c0,0,0-14.6,0-19.5l0.1-55.5C506.5,94.3,497.7,85.5,486.9,85.5z M489.9,157.5c0,4.6-3.8,8.4-8.4,8.4H456c-4.6,0-8.4-3.8-8.4-8.4
	v-52.1v-5.3h33.9c4.6,0,8.4,3.8,8.4,8.4V157.5z M592.1,93v55c0,0.6,0,22.6,0,22.7c0,2.2,0,9.3,0,9.4h-60c-4.6,0-8.5-3.3-9.3-7.7
	c-0.1-0.6-0.2-1.2-0.2-1.8v-21.7c0-0.3,0-0.6,0-0.9V95.2v-9.6h8.7h0.1h0.1h0.2c2.2,0,4.1,0.8,5.7,2.2c1.7,1.5,2.5,3.2,2.5,5.2
	l0.1,64.1c0,4.8,4,8.8,8.8,8.8h26L574.7,93c0-0.1,0-0.1,0-0.2v-7.2h8.4h0.1h0.1h0.5c2.4,0.1,4.3,0.9,5.9,2.3
	C591.4,89.4,592.2,91.1,592.1,93z M1197.7,173c0,2.1,0,7.5,0,7.5c-0.1,0-6.4,0-8.9,0h-39.3c-1.7,0-3.3-0.2-4.9-0.5
	c-1.5-0.3-2.9-0.7-4-1.4c-1.1-0.6-1.9-1.4-2.5-2.5c-0.6-1.1-0.9-2.4-0.9-4V94.2c0-0.1,0-0.1,0-0.2v-8.2h12.3h37.7
	c2.5,0,4.5,0.7,6.3,2.3c1.7,1.5,2.5,3.2,2.5,5.2s0,6.7,0,7.1c-0.1,0-7.4,0-8.8,0h-2.4h-29.9v21.7c0.5,1.9,2.3,3.4,4.4,3.5h25.1
	c0.1,0,0.1,0,0.2,0h0.2c2.1,0,3.9,0.7,5.7,2.1c1.7,1.3,2.6,3,2.6,5s0,7.1,0,7.3c-0.3,0-7.3,0-8.7,0h-25.9c-1.8,0.4-3.1,1.8-3.6,3.5
	v18.6c0.5,1.8,2.1,3.3,4,3.5h25.9h3.9c0.3,0,0.5,0.1,0.8,0.1c2.1,0.1,3.9,0.8,5.5,2.1C1196.7,169.1,1197.5,170.7,1197.7,173z
	 M1032.2,87.9c1.6,1.5,2.5,3.2,2.4,5.1v55c0,0.6,0,22.6,0,22.7c0,2.2,0,9.3,0,9.4h-60c-4.6,0-8.5-3.3-9.3-7.7
	c-0.1-0.6-0.2-1.2-0.2-1.8v-21.7c0-0.3,0-0.6,0-0.9V95.2v-9.6h8.7h0.1h0.1h0.2c2.2,0,4.1,0.8,5.7,2.2c1.7,1.5,2.5,3.2,2.5,5.2
	l0.1,64.1c0,4.8,4,8.8,8.8,8.8h26l-0.1-72.9c0-0.1,0-0.1,0-0.2v-7.2h8.4h0.1h0.1h0.5C1028.7,85.7,1030.6,86.5,1032.2,87.9z
	 M939.6,96.2c-3.4-3.2-7.9-5.8-13.4-7.7c-5.5-1.9-12.5-2.9-20.7-2.9h-16.7c-0.1,0-0.2,0-0.3,0h-5.6h-2.7h-1.5V87v2.4v8.1v74.2
	c0,1.1,0,8.4,0,8.4s8.4,0,10,0h16.7c25.2,0,43.5-9,43.5-36v-23.8c0.1-4.5-0.6-8.9-2.1-13.1C945.4,103.1,942.9,99.4,939.6,96.2z
	 M934.2,143.6L934.2,143.6c-0.1,12.2-10.1,22.1-22.2,22.1h-13.2c-1.7,0-6,0-6,0s0-4.4,0-6v-59.5h19.3c12.2,0,22.1,10,22.1,22.1
	V143.6z M1225.6,99.9c0,2.7,0,6.4,0,10.2c0,9.6,1.1,15.5,8.9,15.5h24.5c6.9,0,15.9,2.8,16,14.3c0,3.5-0.1,7.5-0.1,12.5
	c0,13,0.1,27.8,0.1,27.8c-18.5,0-36.7,0-55.1,0c-4.4,0-7.9-3.1-7.9-7.1s3.6-7.2,7.9-7.2c4.8,0,40.9,0,40.9,0c0-1.4,0-10.9,0-13.8
	c-0.1-6-1.8-12.1-8.3-12.1h-24.4c-9.4,0-15.8-4.6-16.1-14.4c-0.1-3.4,0-6.9,0-10.5c0-9.9,0-19.7,0-29.5h52.8h1.9
	c4.7,0,8.3,3.1,8.3,7.1c0,1.9,0.1,7.1,0,7.2C1275,100,1233.2,100,1225.6,99.9z M1111.5,96.2c-3.4-3.2-7.9-5.8-13.4-7.7
	c-5.5-1.9-12.5-2.9-20.7-2.9h-16.7c-0.1,0-0.2,0-0.3,0h-5.6h-2.7h-1.5V87v2.4v8.1v74.2c0,1.1,0,8.4,0,8.4s8.4,0,10,0h16.7
	c25.2,0,43.5-9,43.5-36v-23.8c0.1-4.5-0.6-8.9-2.1-13.1C1117.3,103.1,1114.8,99.4,1111.5,96.2z M1106.1,143.6h-0.1
	c0,12.2-10,22.1-22.1,22.1h-13.2c-1.7,0-6,0-6,0s0-4.4,0-6v-59.5h19.3c12.2,0,22.1,10,22.1,22.1V143.6z M753.7,173.1
	c0,2.1-0.1,7.2,0,7.3c0,0-5.9,0-8.4,0H704c-2.6,0-4.8-0.8-6.7-2.4c-1.9-1.6-2.8-3.4-2.8-5.6V95v-9.3h8.7h0.2c2.4,0,4.3,0.8,6,2.2
	s2.5,3.1,2.5,5v68.8c0.2,3.2,1.1,4.2,5.2,4.3h28c2.3,0,4.3,0.7,6,2.1C752.8,169.4,753.5,171,753.7,173.1z M673.9,132.4
	c-1.9-1.1-4.5-1.5-7.2-1.7c4.9-1.1,8.6-5.5,8.6-10.8v-8c0-0.2,0-1.4,0-1.8V96.6c0-6.1-5-11.1-11.1-11.1h-56v86.3
	c0.2,2.3,0.9,4.2,2.8,5.9c2,1.8,4.3,2.4,7.2,2.4h59.9c0,0-0.1-8-0.1-11V153h0.2c0-0.1,0-0.2,0-0.3c0-0.1,0-0.3,0-0.4
	c0,0,0-7.1,0-7.2C678,137.4,679,135.3,673.9,132.4z M626,105.1c0-1.4,0.6-2.7,1.5-3.6c0.9-0.9,2.2-1.5,3.6-1.5h21.3
	c2.8,0,5.1,2.3,5.1,5.1v13.6c0,2.8-2.3,5.1-5.1,5.1h-21.3c-1.4,0-2.7-0.6-3.6-1.5c-0.9-0.9-1.5-2.2-1.5-3.6V105.1z M660.4,159.9
	c0,3.2-2.6,5.8-5.8,5.8h-22.7c-1.5,0-2.8-0.6-3.8-1.5c-0.2-0.2-0.3-0.3-0.5-0.5c-0.9-1-1.5-2.4-1.5-3.9v-15.5c0-1.5,0.6-2.8,1.5-3.9
	c0.1-0.1,0.3-0.3,0.4-0.4c1-1,2.4-1.5,3.9-1.5h22.7c3.2,0,5.8,2.6,5.8,5.8L660.4,159.9z M830.2,173c0,1,0,2.6,0,4.1
	c0,1.9-1.5,3.4-3.4,3.4c-2,0-4.2,0-5.5,0H782c-1.7,0-3.3-0.2-4.9-0.5c-1.5-0.3-2.9-0.7-4-1.4c-1.1-0.6-1.9-1.4-2.5-2.5
	c-0.6-1.1-0.9-2.4-0.9-4V94.2c0-0.1,0-0.1,0-0.2v-4.7c0-1.9,1.5-3.4,3.4-3.4h8.9h37.7c2.5,0,4.5,0.7,6.3,2.3
	c1.7,1.5,2.5,3.2,2.5,5.2c0,0.9,0,2.4,0,3.7c0,1.9-1.5,3.4-3.4,3.4c-2.2,0-4.6,0-5.4,0h-2.4h-26.5c-1.9,0-3.4,1.5-3.4,3.4v17.7
	c0,0.5,0.1,1,0.3,1.4c0.7,1.5,2.3,2.6,4.1,2.7h25.1c0.1,0,0.1,0,0.2,0h0.2c2.1,0,3.9,0.7,5.7,2.1c1.7,1.3,2.6,3,2.6,5
	c0,0.9,0,2.5,0,3.9c0,1.9-1.5,3.4-3.4,3.4c-2.1,0-4.5,0-5.3,0h-25.5c-0.3,0-0.6,0-0.9,0.1c-1.2,0.4-2.2,1.3-2.8,2.5
	c-0.2,0.4-0.3,0.9-0.3,1.4v16.8c0,1.7,0.9,3.4,2.4,4.2c0.5,0.2,1,0.4,1.6,0.5h25.9h3.9c0.3,0,0.5,0.1,0.8,0.1
	c2.1,0.1,3.9,0.8,5.5,2.1C829.3,169.1,830.1,170.7,830.2,173z"/>
</svg>
